<?xml version="1.0" encoding="UTF-8"?>
<svg width="106px" height="33px" viewBox="0 0 106 33" version="1.1" xmlns="http://www.w3.org/2000/svg" xmlns:xlink="http://www.w3.org/1999/xlink">
    <!-- Generator: Sketch 52.3 (67297) - http://www.bohemiancoding.com/sketch -->
    <title>wedding-logo</title>
    <desc>Created with Sketch.</desc>
    <g id="wedding-logo" stroke="none" stroke-width="1" fill="none" fill-rule="evenodd">
        <path d="M47.4310051,12.667129 C47.4310051,12.7669908 47.3458271,12.8169209 47.1754685,12.8169209 C47.0618961,12.8169209 46.9596825,12.8113731 46.8688245,12.8002774 L44.7052811,12.7669903 L42.5417376,12.8002774 C42.462237,12.8113731 42.3770589,12.8169209 42.286201,12.8169209 C42.0590562,12.8169209 41.9454855,12.761443 41.9454855,12.6504854 C41.9454855,12.5284321 42.098806,12.4674064 42.4054514,12.4674064 C43.4048886,12.4563106 43.9045997,12.3564503 43.9045997,12.1678225 C43.9045997,12.1567267 43.8932426,12.1123444 43.8705281,12.0346741 L43.7342419,11.5852982 L43.649063,11.3522885 C43.5468479,11.0083201 43.2969923,10.2482722 42.8994889,9.0721221 L39.253833,9.0721221 C38.5723986,10.847443 38.2316865,11.8682372 38.2316865,12.1345354 C38.2316865,12.289876 38.299829,12.3841885 38.4361158,12.4174757 C38.4701876,12.4285715 38.7541143,12.4507627 39.2879046,12.4840499 C39.6172646,12.4951457 39.7819421,12.5506236 39.7819421,12.6504854 C39.7819421,12.761443 39.6343002,12.8169209 39.3390119,12.8169209 C38.8165789,12.8169209 38.2089756,12.7947298 37.516184,12.7503467 C37.3458254,12.739251 37.1697908,12.7337032 36.988075,12.7337032 C36.8063591,12.7337032 36.6303245,12.7447988 36.4599659,12.7669903 C36.369108,12.778086 36.2952871,12.7836338 36.2385009,12.7836338 C36.0794995,12.7836338 36,12.7337037 36,12.6338419 C36,12.5339801 36.1788739,12.4785021 36.5366269,12.4674064 C36.89438,12.4563106 37.1527533,12.4036066 37.3117547,12.3092926 C37.470756,12.2149787 37.5956838,12.0346754 37.6865417,11.7683773 C39.1516257,7.6851391 40.3441181,4.4063924 41.2640545,1.9320388 C41.286769,1.7988898 41.3321973,1.6490993 41.4003407,1.482663 L41.4855196,1.1830791 C41.5195913,1.0610257 41.5650196,1 41.6218058,1 C41.6558775,1 41.6842702,1.0332868 41.7069847,1.0998613 C41.8546288,1.5325958 42.1896624,2.4368863 42.7120954,3.8127601 C43.120956,4.8890484 44.1374138,7.5908244 45.7614991,11.9181692 C45.8523571,12.1622758 45.968767,12.3176141 46.1107325,12.3841886 C46.252698,12.4507632 46.5451426,12.4895977 46.988075,12.5006935 C47.2833632,12.5117892 47.4310051,12.5672672 47.4310051,12.667129 Z M42.7972743,8.6893204 C42.6155584,8.1900114 42.3145961,7.36339 41.8943782,6.2094313 L41.076661,3.9292649 C40.5996569,5.1497981 40.0261249,6.7364674 39.3560477,8.6893204 L42.7972743,8.6893204 Z M57.6013629,1.3828017 C57.6013629,1.4937592 57.4593995,1.5436894 57.1754685,1.5325936 L56.8006814,1.5159501 L56.4940375,1.5159501 C56.3123216,1.5159501 56.2044295,1.5464629 56.1703578,1.6074896 C56.136286,1.6685163 56.1192504,1.8543674 56.1192504,2.1650485 L56.1192504,11.7517337 C56.1192504,12.3398088 56.1135719,12.683772 56.1022147,12.7836338 C56.0908574,12.8834956 56.0567862,12.9334258 56,12.9334258 C55.9318566,12.9334258 55.8523571,12.8724001 55.7614991,12.7503467 L53.5809199,9.6380028 C52.3202663,7.8293946 50.7870618,5.5714421 48.9812606,2.8640777 L48.9982964,12.1511789 C49.0096537,12.2954237 49.0948317,12.3869624 49.253833,12.4257975 C49.4128344,12.4646326 49.7932963,12.4895977 50.39523,12.5006935 C50.5428741,12.5006935 50.6166951,12.5450758 50.6166951,12.6338419 C50.6166951,12.7447994 50.4690532,12.8002774 50.1737649,12.8002774 C50.0715497,12.8002774 49.7478733,12.783634 49.2027257,12.7503467 C49.0210099,12.739251 48.8449753,12.7337032 48.6746167,12.7337032 C48.6859739,12.7337032 48.5865996,12.7447988 48.3764906,12.7669903 C48.1663817,12.7891818 47.8455445,12.8002774 47.4139693,12.8002774 L47.2436116,12.8002774 C46.9823951,12.8002774 46.8517888,12.7503472 46.8517888,12.6504854 C46.8517888,12.5506236 46.9653595,12.5006935 47.1925043,12.5006935 C47.8625814,12.4895977 48.2515611,12.4479893 48.3594549,12.3758669 C48.4673486,12.3037444 48.5212947,12.0679632 48.5212947,11.668516 L48.5212947,3.4632455 C48.5212947,2.5422978 48.3282245,1.9653271 47.9420784,1.7323162 C47.7603625,1.6213587 47.436686,1.5658807 46.9710392,1.5658807 C46.6757509,1.5658807 46.528109,1.5104028 46.528109,1.3994452 C46.528109,1.2995834 46.6132871,1.2496533 46.7836457,1.2496533 C47.0107905,1.2496533 47.3003957,1.2552011 47.6524702,1.2662968 C48.0045446,1.2773926 48.1919363,1.2829404 48.2146508,1.2829404 C48.2487225,1.2829404 48.4077215,1.2773926 48.6916525,1.2662968 C49.0664414,1.2662968 49.4298676,1.260749 49.7819421,1.2496533 L55.6592845,9.7877947 L55.6592845,2.3814147 C55.6592845,2.0374463 55.653606,1.829404 55.6422487,1.7572816 C55.6308915,1.6851591 55.5854632,1.6296812 55.5059625,1.590846 C55.4264618,1.5520109 55.1538922,1.5325936 54.6882453,1.5325936 C54.2793847,1.5325936 54.0749574,1.4826635 54.0749574,1.3828017 C54.0749574,1.2718441 54.2112422,1.2163662 54.483816,1.2163662 L55.5570698,1.2163662 C55.7387857,1.2274619 55.8466779,1.2330097 55.8807496,1.2330097 C55.8921068,1.2330097 55.9943204,1.2274619 56.1873935,1.2163662 L57.2265758,1.2163662 C57.4764351,1.2163662 57.6013629,1.2718441 57.6013629,1.3828017 Z M69.3219761,7.0249653 C69.3219761,8.9778184 68.6235164,10.4979141 67.2265758,11.5852982 C66.2044242,12.3841926 64.8358973,12.7836338 63.120954,12.7836338 C63.075525,12.7836338 62.8739371,12.778086 62.516184,12.7669903 C62.1584309,12.7558945 61.638845,12.7503467 60.9574106,12.7503467 L60.1056218,12.7503467 L58.7597956,12.7669903 C58.6802949,12.778086 58.5951169,12.7836338 58.5042589,12.7836338 C58.2884714,12.7836338 58.1805792,12.7281559 58.1805792,12.6171983 C58.1805792,12.5173365 58.3622923,12.4674064 58.725724,12.4674064 C59.1913709,12.4674064 59.4809761,12.3841895 59.5945486,12.2177531 C59.6399775,12.1400828 59.6626917,11.9292666 59.6626917,11.5852982 L59.6626917,2.6144244 C59.6626917,2.0707324 59.6201026,1.7545081 59.5349233,1.665742 C59.449744,1.576976 59.1572995,1.5325936 58.6575809,1.5325936 C58.3963644,1.5325936 58.2657581,1.4715679 58.2657581,1.3495146 C58.2657581,1.2607485 58.3622932,1.2163662 58.5553663,1.2163662 C58.544009,1.2163662 58.6689368,1.221914 58.9301533,1.2330097 C59.1913698,1.2441055 59.4469039,1.2496533 59.6967632,1.2496533 L61.5195911,1.2496533 C63.5638944,1.2496533 65.0119208,1.3883481 65.8637138,1.665742 C66.8972227,1.9986147 67.7319673,2.6560284 68.3679727,3.6380028 C69.0039782,4.6199772 69.3219761,5.7489534 69.3219761,7.0249653 Z M67.4139693,6.9583911 C67.4139693,5.1164956 67.0448646,3.7656076 66.306644,2.9056865 C65.5684233,2.0457655 64.4156807,1.6158114 62.8483816,1.6158114 C62.0874465,1.6158114 61.6274852,1.6934805 61.4684838,1.8488211 C61.4003404,1.9264914 61.3662692,2.1927855 61.3662692,2.6477115 L61.3662692,11.5020804 C61.3662692,11.8127616 61.374787,12.0013866 61.3918228,12.0679612 C61.4088587,12.1345357 61.4571262,12.1900136 61.5366269,12.2343967 C61.8092007,12.3675457 62.3827327,12.4341193 63.2572402,12.4341193 C64.4838221,12.4341193 65.4718872,12.0124869 66.2214651,11.1692094 C67.0164719,10.281549 67.4139693,8.8779569 67.4139693,6.9583911 Z M80.1567291,12.2843273 C80.1567291,12.7503491 79.7592317,12.9833564 78.9642249,12.9833564 C78.0783601,12.9833564 77.3855789,12.6227498 76.8858603,11.9015257 C76.6700727,11.5908445 76.5309486,11.2912636 76.4684838,11.0027739 C76.406019,10.7142843 76.3123232,9.9819754 76.1873935,8.8058252 C76.1192501,8.0956969 75.8864302,7.5936214 75.4889267,7.2995839 C75.0914233,7.0055464 74.4440704,6.8474342 73.5468484,6.8252427 L73.5468484,12.0679612 C73.5468484,12.2898763 73.7285615,12.4285712 74.0919932,12.4840499 C74.1942083,12.4951457 74.455421,12.5062413 74.8756388,12.517337 C75.023283,12.517337 75.0971039,12.5617194 75.0971039,12.6504854 C75.0971039,12.7503472 75.0005688,12.8002774 74.8074957,12.8002774 L74.6030664,12.8002774 C74.5008513,12.7891816 74.0068187,12.7836338 73.120954,12.7836338 C72.9505954,12.7836338 72.6609901,12.7891816 72.2521295,12.8002774 L70.8040886,12.8002774 C70.5542293,12.8002774 70.4293015,12.7503472 70.4293015,12.6504854 C70.4293015,12.5728151 70.593979,12.5284328 70.923339,12.517337 C71.4571293,12.5062413 71.7467346,12.4396677 71.7921635,12.3176144 C71.8375925,12.2621356 71.8603066,12.0457717 71.8603066,11.668516 L71.8603066,2.481276 C71.8603066,2.0374458 71.8120391,1.7711516 71.7155026,1.6823856 C71.618966,1.5936195 71.3265215,1.5436894 70.8381601,1.5325936 C70.5542291,1.5325936 70.4122658,1.4826635 70.4122658,1.3828017 C70.4122658,1.2718441 70.5031223,1.2163662 70.6848382,1.2163662 C70.7189099,1.2163662 70.7700167,1.221914 70.8381601,1.2330097 L73.1039182,1.2829404 C73.331063,1.2829404 73.649061,1.2773926 74.0579216,1.2662968 C74.5122112,1.2441053 74.8302092,1.2330097 75.011925,1.2330097 C76.0681484,1.2330097 76.9057323,1.4632432 77.5247019,1.9237171 C78.1436715,2.3841909 78.4531516,3.0083178 78.4531516,3.7961165 C78.4531516,4.5728194 78.1351537,5.2135897 77.4991482,5.7184466 C76.8631428,6.2233035 76.0000055,6.5201105 74.9097104,6.6088766 C74.8074952,6.6199723 74.7507099,6.6366157 74.7393526,6.6588072 C74.7393526,6.7031902 74.796138,6.7253814 74.9097104,6.7253814 C76.1022206,6.925105 76.9227689,7.3328679 77.3713799,7.9486824 C77.8199909,8.5644968 78.118114,9.6768297 78.2657581,11.2857143 C78.356616,12.1955663 78.674614,12.6504854 79.2197615,12.6504854 C79.3901201,12.6504854 79.4752981,12.6171987 79.4752981,12.5506241 C79.4752981,12.5395284 79.4696196,12.5284328 79.4582624,12.517337 C79.4014761,12.3952837 79.3730835,12.2954234 79.3730835,12.2177531 C79.3730835,11.9847422 79.4980112,11.8682386 79.7478705,11.8682386 C80.0204443,11.8682386 80.1567291,12.0069334 80.1567291,12.2843273 Z M76.6303237,3.9459085 C76.6303237,2.3592154 75.9261853,1.5658807 74.5178876,1.5658807 C74.1430986,1.5658807 73.8875646,1.6158109 73.7512777,1.7156727 C73.6149908,1.8155345 73.5468484,1.9930639 73.5468484,2.2482663 L73.5468484,6.4757282 C74.6371434,6.4868239 75.4236205,6.2926511 75.9063032,5.8932039 C76.3889859,5.4937567 76.6303237,4.8446647 76.6303237,3.9459085 Z M89.6286201,10.0873786 C89.6286201,10.1317617 89.617263,10.4036036 89.5945486,10.9029126 C89.5718341,11.4022216 89.560477,11.879332 89.560477,12.334258 L89.560477,12.8834951 C88.4474675,12.8280164 86.2441959,12.8002774 82.9505963,12.8002774 C82.5530928,12.8002774 82.1612739,12.8058252 81.7751278,12.8169209 L80.8211244,12.8169209 C80.6053368,12.8169209 80.4974446,12.7669908 80.4974446,12.667129 C80.4974446,12.6005545 80.5315158,12.5617199 80.5996593,12.5506241 C80.633731,12.5506241 80.8495153,12.5339807 81.2470187,12.5006935 C81.542307,12.478502 81.7211808,12.4174762 81.7836457,12.3176144 C81.8461105,12.2177526 81.8773424,11.9570063 81.8773424,11.5353675 L81.8773424,2.1816921 C81.8773424,1.8599152 81.8290749,1.6685163 81.7325383,1.6074896 C81.6360018,1.5464629 81.3265216,1.5159501 80.8040886,1.5159501 C80.6223727,1.5159501 80.5315162,1.4660199 80.5315162,1.3661581 C80.5315162,1.2662963 80.656444,1.2163662 80.9063032,1.2163662 L83.8194208,1.2330097 C83.9216359,1.2330097 84.5633104,1.2274619 85.7444634,1.2163662 L88.1294719,1.2163662 C88.4701891,1.2163662 88.7825085,1.194175 89.0664395,1.149792 C89.089154,1.6269095 89.1402608,2.287097 89.2197615,3.1303745 L89.2879046,3.8460472 C89.2992618,3.9015259 89.3049404,3.9736473 89.3049404,4.0624133 C89.3049404,4.1733709 89.2538336,4.2288488 89.1516184,4.2288488 C89.0266888,4.2288488 88.9358322,4.090154 88.879046,3.8127601 C88.6632584,2.814142 88.3111893,2.1816934 87.8228279,1.9153953 C87.4593963,1.7156717 86.5054024,1.6158114 84.9608177,1.6158114 L83.5638842,1.6158114 L83.5638842,6.4923717 L83.9727428,6.4923717 C85.2447537,6.4923717 86.0198737,6.3980592 86.2981261,6.2094313 C86.5763784,6.0208035 86.7666094,5.4715718 86.8688245,4.5617198 C86.891539,4.328709 86.9540029,4.2122053 87.0562181,4.2122053 C87.1811477,4.2122053 87.2436116,4.3120656 87.2436116,4.5117892 C87.2436116,4.7115128 87.2322545,5.0055459 87.20954,5.3938974 C87.1868256,5.7822488 87.1754685,6.0762819 87.1754685,6.2760055 C87.1754685,7.4632514 87.1981826,8.2787773 87.2436116,8.7226075 C87.2549688,8.833565 87.2606474,8.9278776 87.2606474,9.0055479 C87.2606474,9.1497927 87.1981835,9.221914 87.0732538,9.221914 C86.9937532,9.221914 86.9398071,9.1747578 86.911414,9.0804438 C86.8830209,8.9861299 86.8347533,8.6782273 86.7666099,8.1567268 C86.675752,7.5020772 86.3975037,7.0970882 85.9318569,6.9417476 C85.7274266,6.875173 85.1936443,6.8418863 84.330494,6.8418863 L83.5638842,6.8418863 L83.5638842,12.4341193 C86.062477,12.4341193 87.527539,12.3841891 87.9591141,12.2843273 C88.708692,12.117891 89.1345821,11.4077733 89.2367973,10.1539528 C89.2595118,9.8765589 89.3333327,9.7378641 89.4582624,9.7378641 C89.5718348,9.7378641 89.6286201,9.8543678 89.6286201,10.0873786 Z M106,1.3495146 C106,1.4493764 105.80693,1.5048543 105.420784,1.5159501 C104.989209,1.5270458 104.702443,1.6657407 104.560477,1.9320388 C104.418511,2.198337 104.199888,2.764212 103.9046,3.629681 C103.393524,5.1497996 102.939241,6.4424357 102.541738,7.5076283 C101.860303,9.3273323 101.241343,11.0859832 100.684838,12.7836338 C100.639409,12.9278787 100.582624,13 100.51448,13 C100.457694,13 100.403748,12.9445221 100.352641,12.8335645 C100.301533,12.7226069 100.151052,12.3342613 99.901193,11.668516 C99.58319,10.803047 99.236799,9.9320432 98.86201,9.0554785 C98.566722,8.3675416 98.277117,7.6574239 97.993186,6.925104 C97.198179,8.8002868 96.408863,10.7586583 95.625213,12.8002774 C95.579784,12.9334265 95.522999,13 95.454855,13 C95.398069,13 95.329927,12.9056875 95.250426,12.7170596 C94.898351,11.8959737 93.5922884,8.4951755 91.3321976,2.5145631 C91.1731963,2.0929244 91.053947,1.8294041 90.9744463,1.7239945 C90.8949457,1.6185848 90.6961969,1.5603329 90.3781942,1.5492372 C89.8330467,1.5270457 89.560477,1.4493765 89.560477,1.3162275 C89.560477,1.2163657 89.6513336,1.1664355 89.8330494,1.1664355 C89.9125501,1.1664355 89.9806925,1.1719833 90.0374787,1.1830791 C90.6394124,1.2163663 91.2867654,1.2330097 91.9795571,1.2330097 C92.115844,1.2330097 92.3515032,1.224688 92.6865417,1.2080444 C93.0215803,1.1914007 93.4559882,1.1830791 93.9897785,1.1830791 L94.177172,1.1830791 C94.370245,1.1830791 94.46678,1.2330092 94.46678,1.332871 C94.46678,1.4549243 94.290746,1.5214979 93.9386712,1.5325936 C93.2345223,1.5547851 92.8824532,1.6435498 92.8824532,1.7988904 C92.8824532,2.1095716 93.9273036,4.9999726 96.017036,10.4701803 C96.777971,8.5949976 97.345824,7.2135967 97.720613,6.3259362 L96.034072,2.0651872 C95.943214,1.8321764 95.838161,1.6823859 95.71891,1.6158114 C95.599659,1.5492368 95.381035,1.5104023 95.063032,1.4993065 C94.74503,1.4882108 94.586031,1.4382806 94.586031,1.3495146 C94.586031,1.2274612 94.70528,1.1664355 94.943782,1.1664355 C95.125498,1.1664355 95.346961,1.1775311 95.608177,1.1997226 C95.869394,1.2219141 96.323676,1.2330097 96.971039,1.2330097 L98.265758,1.2330097 L100.139693,1.2662968 C100.559911,1.2662968 101.065301,1.2441056 101.655877,1.1997226 C101.724021,1.1886269 101.80352,1.1830791 101.894378,1.1830791 C102.166952,1.1830791 102.303237,1.238557 102.303237,1.3495146 C102.303237,1.4493764 102.206702,1.4993065 102.013629,1.4993065 L101.72402,1.4993065 C101.212945,1.4993065 100.826804,1.5658801 100.565588,1.6990291 C100.452015,1.7545079 100.24191,2.1539491 99.935264,2.8973648 C99.798977,3.2080459 99.571836,3.7350864 99.253833,4.4785021 L98.947189,5.2274619 C99.02669,5.449377 99.276545,6.0651822 99.696763,7.074896 C100.241911,8.3620037 100.690515,9.4660148 101.042589,10.3869626 C101.678595,8.5894501 102.428161,6.4646447 103.291312,4.0124827 C103.745601,2.7142792 103.972743,1.9930659 103.972743,1.8488211 C103.972743,1.6380017 103.773994,1.5325936 103.376491,1.5325936 C102.819986,1.5325936 102.541738,1.4715679 102.541738,1.3495146 C102.541738,1.238557 102.655308,1.1830791 102.882453,1.1830791 C103.075526,1.1830791 103.228847,1.1886269 103.342419,1.1997226 C103.592278,1.2219141 103.81942,1.2330097 104.02385,1.2330097 L105.386712,1.2163662 C105.727429,1.2163662 105.914821,1.2302356 105.948893,1.257975 C105.982964,1.2857144 106,1.3162273 106,1.3495146 Z M99.850085,1.8488211 C99.850085,1.6490975 99.498016,1.5492372 98.793867,1.5492372 L98.589438,1.5492372 L98.29983,1.5658807 C97.890969,1.5880722 97.686542,1.6601936 97.686542,1.7822469 C97.686542,1.8044384 98.021575,2.7642069 98.691652,4.6615811 C98.952869,4.1067933 99.25951,3.3744844 99.611584,2.4646325 C99.657013,2.3425791 99.725156,2.1816931 99.816014,1.9819695 C99.838728,1.8932034 99.850085,1.8488211 99.850085,1.8488211 Z" id="Andrew" fill="#000000" fill-rule="nonzero"></path>
        <path d="M31,13.2642559 C31,13.4478451 30.9020904,13.5549373 30.7062682,13.5855355 C30.5104461,13.6161337 29.8100157,13.6620303 28.6049563,13.7232267 C27.6710352,13.7538249 27.0685145,13.860917 26.7973761,14.0445063 C26.5262377,14.2280955 26.3304185,14.7023606 26.2099125,15.4673157 C25.5170033,19.2920914 24.2065208,22.734338 22.2784257,25.7941586 C22.8809554,26.7733011 23.3177829,27.5382448 23.5889213,28.0890125 C24.311957,29.5577264 25.0123873,30.4756588 25.6902332,30.8428373 C26.3680792,31.2100157 27.7312823,31.4394988 29.7798834,31.5312935 C30.4125396,31.5618917 30.728863,31.7301793 30.728863,32.0361613 C30.728863,32.280947 30.5179807,32.403338 30.0962099,32.403338 C29.3430477,32.403338 27.9572501,32.3574413 25.9387755,32.2656467 C25.2458663,32.2350485 24.7789128,32.2197497 24.5379009,32.2197497 C23.5437268,32.2197497 22.4591895,32.2809451 21.2842566,32.403338 C21.1637506,32.0667577 20.651608,31.0876298 19.7478134,29.4659249 L19.5218659,29.0987483 C17.1117469,31.6995958 13.9635763,33 10.0772595,33 C7.0947373,33 4.6695915,32.1891597 2.80174927,30.5674548 C0.93390708,28.9457499 0,26.8345054 0,24.2336579 C0,19.8887126 2.65109108,16.461765 7.9533528,13.9527121 C7.8930998,13.8609175 7.6972806,13.6467333 7.3658892,13.310153 C5.8294384,11.6884481 4.8729368,10.548682 4.4963557,9.8908206 C4.1197746,9.2329592 3.93148688,8.3685728 3.93148688,7.2976356 C3.93148688,5.125163 4.6319172,3.3657925 6.0327988,2.0194715 C7.4336805,0.67315043 9.2487741,0 11.4781341,0 C13.6171147,0 15.3418302,0.55840888 16.6523324,1.6752434 C17.9628345,2.7920779 18.6180758,4.2531203 18.6180758,6.0584145 C18.6180758,8.965244 16.5243164,11.2753739 12.3367347,12.9888734 C12.5174936,13.2030609 13.2706445,14.0903955 14.5962099,15.650904 C17.2473408,18.7413228 19.5821085,21.7704998 21.6005831,24.7385257 C23.7395637,21.2503303 24.8090379,18.0069691 24.8090379,15.0083449 C24.8090379,14.3351844 24.6734707,13.9450631 24.4023324,13.8379694 C24.131194,13.7308757 23.1671609,13.6773296 21.5102041,13.6773296 C20.6064095,13.6773296 20.154519,13.5243409 20.154519,13.2183588 C20.154519,12.9735732 20.4105902,12.8511822 20.9227405,12.8511822 L28.2434402,12.8511822 C29.6292586,12.8511822 30.3824095,12.8664811 30.5029155,12.8970793 C30.8343068,12.9888739 31,13.1112649 31,13.2642559 Z M15,6.9527559 C15,5.1889676 14.6370407,3.755911 13.9111111,2.6535433 C13.1851816,1.5511756 12.2444502,1 11.0888889,1 C9.9036978,1 8.9259298,1.4173187 8.1555556,2.2519685 C7.3851813,3.0866183 7,4.133852 7,5.3937008 C7,7.7244211 8.599984,10.2598288 11.8,13 C13.933344,11.7716474 15,9.7559195 15,6.9527559 Z M19,28.7289973 C17.1114457,25.4733351 13.5046706,20.8970485 8.1795666,15 C6.6625311,16.1364104 5.5866905,17.303517 4.9520124,18.501355 C4.3173343,19.699193 4,21.1427196 4,22.8319783 C4,25.4426508 4.7352868,27.6232975 6.2058824,29.3739837 C7.6764779,31.12467 9.5108249,32 11.7089783,32 C14.4644101,32 16.8947263,30.9096767 19,28.7289973 Z" id="&amp;" fill="#BDBDBD" fill-rule="nonzero"></path>
        <path d="M47.0296232,21.334728 C47.0296232,21.4463046 46.8882192,21.4965133 46.605407,21.4853556 L46.2320966,21.4686192 L45.9266609,21.4686192 C45.7456611,21.4686192 45.638194,21.4993023 45.6042565,21.5606695 C45.5703191,21.6220366 45.5533506,21.8089245 45.5533506,22.1213389 L45.5533506,31.7615063 C45.5533506,32.3528621 45.5476944,32.6987443 45.5363819,32.7991632 C45.5250694,32.8995821 45.4911325,32.9497908 45.43457,32.9497908 C45.3666951,32.9497908 45.2875088,32.8884246 45.1970089,32.7656904 L43.0250216,29.6359833 C41.7693351,27.8172852 40.2421718,25.5467361 38.4434858,22.8242678 L38.4604544,32.1631799 C38.4717669,32.3082295 38.5566093,32.4002787 38.7149842,32.4393305 C38.8733591,32.4783823 39.2523218,32.5034867 39.8518838,32.5146444 C39.9989462,32.5146444 40.0724763,32.5592743 40.0724763,32.6485356 C40.0724763,32.7601121 39.9254161,32.8158996 39.6312913,32.8158996 C39.5294789,32.8158996 39.2070778,32.7991633 38.6640782,32.7656904 C38.4830784,32.7545327 38.3077374,32.748954 38.13805,32.748954 C38.1493625,32.748954 38.0503797,32.7601115 37.8410986,32.7824268 C37.6318176,32.8047421 37.3122445,32.8158996 36.8823699,32.8158996 L36.7126833,32.8158996 C36.4524961,32.8158996 36.3224044,32.7656909 36.3224044,32.665272 C36.3224044,32.5648531 36.4355276,32.5146444 36.6617774,32.5146444 C37.3292143,32.5034867 37.7166613,32.4616461 37.82413,32.3891213 C37.9315987,32.3165966 37.9853322,32.0794999 37.9853322,31.6778243 L37.9853322,23.4267782 C37.9853322,22.5006927 37.7930227,21.9205033 37.408398,21.6861925 C37.2273982,21.5746159 36.904997,21.5188285 36.4411849,21.5188285 C36.1470602,21.5188285 36,21.463041 36,21.3514644 C36,21.2510455 36.0848424,21.2008368 36.2545298,21.2008368 C36.4807796,21.2008368 36.7692438,21.2064156 37.119931,21.2175732 C37.4706182,21.2287309 37.6572715,21.2343096 37.6798965,21.2343096 C37.7138339,21.2343096 37.8722064,21.2287309 38.1550187,21.2175732 C38.5283309,21.2175732 38.8903252,21.2119945 39.2410124,21.2008368 L45.095197,29.7866109 L45.095197,22.3389121 C45.095197,21.9930248 45.0895408,21.7838218 45.0782284,21.7112971 C45.0669159,21.6387723 45.0216666,21.5829849 44.9424791,21.5439331 C44.8632917,21.5048813 44.591796,21.4853556 44.1279839,21.4853556 C43.7207342,21.4853556 43.5171125,21.4351469 43.5171125,21.334728 C43.5171125,21.2231515 43.6528603,21.167364 43.9243601,21.167364 L44.9933851,21.167364 C45.174385,21.1785217 45.281852,21.1841004 45.3157895,21.1841004 C45.327102,21.1841004 45.4289129,21.1785217 45.6212252,21.167364 L46.6563129,21.167364 C46.9051877,21.167364 47.0296232,21.2231515 47.0296232,21.334728 Z M52.1541559,32.665272 C52.1541559,32.7545332 52.086282,32.7991632 51.9505321,32.7991632 L51.7808456,32.7991632 C51.7129706,32.7656902 50.9437328,32.748954 49.473109,32.748954 C49.1902967,32.748954 48.9074887,32.7601115 48.6246764,32.7824268 C48.4776141,32.7935844 48.2513676,32.7991632 47.9459304,32.7991632 C47.798868,32.7991632 47.7253379,32.7489545 47.7253379,32.6485356 C47.7253379,32.5592743 47.8723981,32.5090656 48.1665229,32.4979079 C48.6190225,32.4867503 48.884862,32.4337522 48.9640495,32.3389121 C49.0432369,32.2440721 49.08283,31.9232942 49.08283,31.376569 L49.08283,22.5732218 C49.08283,22.0264966 49.0545492,21.7196656 48.9979868,21.6527197 C48.9301118,21.5411431 48.619023,21.4741982 48.064711,21.4518828 C47.8497736,21.4407252 47.7423066,21.3960952 47.7423066,21.3179916 C47.7423066,21.2175727 47.8101805,21.167364 47.9459304,21.167364 L50.2366983,21.2008368 C50.4063857,21.2008368 50.734443,21.1952581 51.2208801,21.1841004 L51.8656888,21.167364 C52.0466887,21.167364 52.1371872,21.2175727 52.1371872,21.3179916 C52.1371872,21.4072529 51.8883162,21.4630403 51.3905666,21.4853556 C51.1077543,21.4965133 50.9352414,21.546722 50.8730227,21.6359833 C50.810804,21.7252445 50.7796951,21.9595518 50.7796951,22.3389121 L50.7796951,31.2761506 C50.7796951,31.9121371 50.8079759,32.2580192 50.8645384,32.3138075 C50.9889758,32.4365418 51.3566262,32.5090654 51.9675007,32.5313808 C52.0919381,32.5313808 52.1541559,32.5760107 52.1541559,32.665272 Z M62.9122807,29.0669456 C62.9122807,29.0446303 62.9009684,29.1952564 62.8783434,29.5188285 C62.8330934,30.1659726 62.8104688,30.790792 62.8104688,31.3933054 C62.8104688,31.4602514 62.8217811,31.5969306 62.8444061,31.8033473 C62.8670311,32.0097639 62.8783434,32.2580181 62.8783434,32.5481172 L62.8783434,32.6987448 C62.8783434,32.8437943 62.8330941,32.916318 62.7425942,32.916318 C62.6520943,32.916318 62.572908,32.8326368 62.5050331,32.665272 C62.3466582,32.2970693 62.1882857,32.0571833 62.0299108,31.9456067 C61.2154115,32.6485391 60.2368958,33 59.0943342,33 C57.4313981,33 56.054123,32.4281787 54.9624676,31.2845188 C53.8708123,30.140859 53.3249928,28.6987535 53.3249928,26.958159 C53.3249928,25.2064069 53.825563,23.7754588 54.8267184,22.665272 C55.8278739,21.5550851 57.1203065,21 58.7040552,21 C59.2809922,21 59.7419693,21.0474193 60.0870003,21.1422594 C60.4320313,21.2370995 60.8590714,21.4295662 61.3681334,21.7196653 C61.6170082,21.8647148 61.8036615,21.9372385 61.9280989,21.9372385 C62.0299114,21.9372385 62.1260661,21.8479786 62.216566,21.6694561 C62.3636284,21.3570417 62.4824078,21.2008368 62.5729077,21.2008368 C62.6634076,21.2008368 62.7086569,21.2454668 62.7086569,21.334728 C62.7086569,21.3793587 62.6973446,21.4518823 62.6747196,21.5523013 C62.5502822,22.0878688 62.4880644,23.0920428 62.4880644,24.5648536 C62.4880644,24.776849 62.4710959,24.8995814 62.4371585,24.9330544 C62.403221,24.9665274 62.3579717,24.9832636 62.3014093,24.9832636 C62.1882844,24.9832636 62.1147543,24.8772674 62.0808168,24.665272 C61.9337544,23.7726594 61.7244765,23.1087888 61.4529767,22.6736402 C60.8986647,21.7810276 60.0276159,21.334728 58.8398044,21.334728 C57.9234927,21.334728 57.1995041,21.6359803 56.6678171,22.2384937 C55.7062554,23.3207864 55.2254817,24.90515 55.2254817,26.9916318 C55.2254817,28.8549605 55.621413,30.2998554 56.4132873,31.3263598 C57.1033492,32.2189724 58.0196472,32.665272 59.1622088,32.665272 C59.7504583,32.665272 60.2877936,32.523014 60.7742307,32.2384937 C61.2606678,31.9539735 61.6339743,31.5662507 61.8941616,31.0753138 C62.1882864,30.5062733 62.3975643,29.8870326 62.5220017,29.2175732 C62.5672517,28.9497895 62.6407818,28.8158996 62.7425942,28.8158996 C62.8557191,28.8158996 62.9122807,28.8995808 62.9122807,29.0669456 Z M75.1806155,27.0585774 C75.1806155,28.7210683 74.6743891,30.126912 73.6619212,31.2761506 C72.6494533,32.4253893 71.4079261,33 69.9373023,33 C68.3761786,33 67.0639493,32.4170212 66.0005752,31.251046 C64.9372011,30.0850709 64.405522,28.6485441 64.405522,26.9414226 C64.405522,25.2008281 64.9174045,23.7754588 65.9411849,22.665272 C66.9649653,21.5550851 68.2743665,21 69.8694277,21 C71.3739889,21 72.6353127,21.5801895 73.6534369,22.7405858 C74.671561,23.9009821 75.1806155,25.3402982 75.1806155,27.0585774 Z M73.2801265,27.1422594 C73.2801265,25.1004082 72.8559145,23.5104659 72.0074777,22.3723849 C71.4757906,21.6582949 70.7348336,21.3012552 69.7845844,21.3012552 C68.8795852,21.3012552 68.1782213,21.5746137 67.6804717,22.1213389 C66.7641599,23.125528 66.3060109,24.7601003 66.3060109,27.0251046 C66.3060109,28.8214874 66.625584,30.2161736 67.2647397,31.209205 C67.9038954,32.2022365 68.8003969,32.6987448 69.9542709,32.6987448 C71.0289575,32.6987448 71.8377885,32.2301302 72.380788,31.292887 C72.98035,30.2552249 73.2801265,28.8716962 73.2801265,27.1422594 Z M85.3109002,31.4769874 C85.3109002,31.7670865 85.2939317,32.2468586 85.2599942,32.916318 L85.0733391,32.916318 C85.0054641,32.916318 84.8414355,32.9051605 84.5812482,32.8828452 C84.3210609,32.8605299 84.0269406,32.8493724 83.6988783,32.8493724 L76.6399195,32.7991632 C76.4476071,32.7991632 76.3514524,32.7489545 76.3514524,32.6485356 C76.3514524,32.570432 76.5041687,32.5202233 76.809606,32.4979079 C77.2394806,32.4755926 77.4968359,32.4281733 77.5816796,32.3556485 C77.6665233,32.2831238 77.7089445,32.0739208 77.7089445,31.7280335 L77.7089445,22.3221757 C77.7089445,21.9093424 77.6665233,21.6694564 77.5816796,21.6025105 C77.4968359,21.5355645 77.1942313,21.5020921 76.6738568,21.5020921 C76.4589195,21.5020921 76.3514524,21.4407259 76.3514524,21.3179916 C76.3514524,21.2175727 76.4193263,21.167364 76.5550762,21.167364 L76.7077941,21.167364 C77.0811063,21.200837 77.8220633,21.2175732 78.9306874,21.2175732 C79.0324998,21.2175732 79.2304654,21.2092051 79.5245902,21.1924686 C79.8187149,21.1757321 80.0619298,21.167364 80.2542422,21.167364 L80.4408973,21.167364 C80.6445222,21.167364 80.746333,21.2231515 80.746333,21.334728 C80.746333,21.401674 80.7152242,21.4435146 80.6530055,21.460251 C80.5907868,21.4769875 80.3956492,21.4909344 80.067587,21.5020921 C79.7395248,21.5132497 79.5443872,21.5662478 79.4821685,21.6610879 C79.4199498,21.7559279 79.388841,22.0488121 79.388841,22.539749 L79.388841,32.4142259 C79.6942782,32.4253836 80.1184902,32.4309623 80.6614898,32.4309623 C81.9850512,32.4309623 82.9183177,32.3640174 83.4613172,32.2301255 C84.0043168,32.0962336 84.3719672,31.8451901 84.5642796,31.4769874 C84.7565919,31.1087848 84.8697151,30.6122765 84.9036526,29.9874477 C84.9149651,29.8423982 84.982839,29.7698745 85.1072764,29.7698745 C85.2543388,29.7698745 85.3222127,29.8535556 85.3109002,30.0209205 L85.2939316,30.4393305 L85.2939316,30.5899582 C85.305244,30.6680618 85.3109002,30.7461642 85.3109002,30.8242678 L85.3109002,31.4769874 Z M95,30.0878661 C95,30.1324967 94.988688,30.4058552 94.966063,30.9079498 C94.943438,31.4100444 94.932125,31.8898164 94.932125,32.3472803 L94.932125,32.8995816 C93.8235013,32.8437933 91.628911,32.8158996 88.3482888,32.8158996 C87.9523516,32.8158996 87.5620765,32.8214783 87.1774518,32.832636 L86.2272074,32.832636 C86.01227,32.832636 85.904803,32.7824273 85.904803,32.6820084 C85.904803,32.6150624 85.93874,32.5760112 86.0066149,32.5648536 C86.0405524,32.5648536 86.2554865,32.5481173 86.6514236,32.5146444 C86.9455484,32.492329 87.1237175,32.4309628 87.1859362,32.3305439 C87.2481549,32.230125 87.2792637,31.967924 87.2792637,31.5439331 L87.2792637,22.1380753 C87.2792637,21.8145033 87.2311864,21.6220366 87.1350302,21.5606695 C87.038874,21.4993023 86.7306133,21.4686192 86.2102387,21.4686192 C86.0292389,21.4686192 85.9387403,21.4184105 85.9387403,21.3179916 C85.9387403,21.2175727 86.0631758,21.167364 86.3120506,21.167364 L89.21369,21.1841004 C89.3155024,21.1841004 89.9546485,21.1785217 91.1311475,21.167364 L93.5067587,21.167364 C93.8461334,21.167364 94.157222,21.145049 94.440035,21.1004184 C94.462659,21.5801977 94.513565,22.2440683 94.592752,23.0920502 L94.660627,23.8117155 C94.671939,23.8675038 94.677596,23.9400274 94.677596,24.0292887 C94.677596,24.1408653 94.62669,24.1966527 94.524878,24.1966527 C94.40044,24.1966527 94.309942,24.0571841 94.253379,23.7782427 C94.038442,22.7740536 93.6877601,22.1380767 93.201323,21.8702929 C92.8393233,21.6694551 91.8890883,21.5690377 90.3505896,21.5690377 L88.9591602,21.5690377 L88.9591602,26.4728033 L89.3664078,26.4728033 C90.6334068,26.4728033 91.4054727,26.3779647 91.6826287,26.1882845 C91.9597847,25.9986044 92.1492661,25.4463086 92.2510785,24.5313808 C92.2737035,24.29707 92.3359213,24.1799163 92.4377337,24.1799163 C92.5621711,24.1799163 92.6243888,24.2803337 92.6243888,24.4811715 C92.6243888,24.6820094 92.6130765,24.9776828 92.5904515,25.3682008 C92.5678266,25.7587188 92.5565142,26.0543923 92.5565142,26.2552301 C92.5565142,27.4490994 92.5791389,28.2691749 92.6243888,28.7154812 C92.6357013,28.8270577 92.6413575,28.9218964 92.6413575,29 C92.6413575,29.1450495 92.5791397,29.2175732 92.4547023,29.2175732 C92.3755149,29.2175732 92.3217814,29.1701539 92.2935001,29.0753138 C92.2652189,28.9804737 92.2171416,28.6708534 92.1492666,28.1464435 C92.0587667,27.4881418 91.7816148,27.0808934 91.3178027,26.9246862 C91.1141779,26.8577403 90.5824988,26.8242678 89.7227495,26.8242678 L88.9591602,26.8242678 L88.9591602,32.4476987 C91.4479081,32.4476987 92.9071975,32.39749 93.3370722,32.2970711 C94.083697,32.1297063 94.507909,31.4156269 94.609721,30.1548117 C94.632346,29.8758703 94.705876,29.7364017 94.830313,29.7364017 C94.943438,29.7364017 95,29.8535553 95,30.0878661 Z" id="Nicole" fill="#000000" fill-rule="nonzero"></path>
    </g>
</svg>