<?xml version="1.0" encoding="UTF-8"?>
<svg width="121px" height="53px" viewBox="0 0 121 53" version="1.1" xmlns="http://www.w3.org/2000/svg" xmlns:xlink="http://www.w3.org/1999/xlink">
    <!-- Generator: Sketch 51.2 (57519) - http://www.bohemiancoding.com/sketch -->
    <title>wedding-logo</title>
    <desc>Created with Sketch.</desc>
    <defs></defs>
    <g id="wedding-logo" stroke="none" stroke-width="1" fill="none" fill-rule="evenodd">
        <path d="M53.4310051,21.667129 C53.4310051,21.7669908 53.3458271,21.8169209 53.1754685,21.8169209 C53.0618961,21.8169209 52.9596825,21.8113731 52.8688245,21.8002774 L50.7052811,21.7669903 L48.5417376,21.8002774 C48.462237,21.8113731 48.3770589,21.8169209 48.286201,21.8169209 C48.0590562,21.8169209 47.9454855,21.761443 47.9454855,21.6504854 C47.9454855,21.5284321 48.098806,21.4674064 48.4054514,21.4674064 C49.4048886,21.4563106 49.9045997,21.3564503 49.9045997,21.1678225 C49.9045997,21.1567267 49.8932426,21.1123444 49.8705281,21.0346741 L49.7342419,20.5852982 L49.649063,20.3522885 C49.5468479,20.0083201 49.2969923,19.2482722 48.8994889,18.0721221 L45.253833,18.0721221 C44.5723986,19.847443 44.2316865,20.8682372 44.2316865,21.1345354 C44.2316865,21.289876 44.299829,21.3841885 44.4361158,21.4174757 C44.4701876,21.4285715 44.7541143,21.4507627 45.2879046,21.4840499 C45.6172646,21.4951457 45.7819421,21.5506236 45.7819421,21.6504854 C45.7819421,21.761443 45.6343002,21.8169209 45.3390119,21.8169209 C44.8165789,21.8169209 44.2089756,21.7947298 43.516184,21.7503467 C43.3458254,21.739251 43.1697908,21.7337032 42.988075,21.7337032 C42.8063591,21.7337032 42.6303245,21.7447988 42.4599659,21.7669903 C42.369108,21.778086 42.2952871,21.7836338 42.2385009,21.7836338 C42.0794995,21.7836338 42,21.7337037 42,21.6338419 C42,21.5339801 42.1788739,21.4785021 42.5366269,21.4674064 C42.89438,21.4563106 43.1527533,21.4036066 43.3117547,21.3092926 C43.470756,21.2149787 43.5956838,21.0346754 43.6865417,20.7683773 C45.1516257,16.6851391 46.3441181,13.4063924 47.2640545,10.9320388 C47.286769,10.7988898 47.3321973,10.6490993 47.4003407,10.482663 L47.4855196,10.1830791 C47.5195913,10.0610257 47.5650196,10 47.6218058,10 C47.6558775,10 47.6842702,10.0332868 47.7069847,10.0998613 C47.8546288,10.5325958 48.1896624,11.4368863 48.7120954,12.8127601 C49.120956,13.8890484 50.1374138,16.5908244 51.7614991,20.9181692 C51.8523571,21.1622758 51.968767,21.3176141 52.1107325,21.3841886 C52.252698,21.4507632 52.5451426,21.4895977 52.988075,21.5006935 C53.2833632,21.5117892 53.4310051,21.5672672 53.4310051,21.667129 Z M48.7972743,17.6893204 C48.6155584,17.1900114 48.3145961,16.36339 47.8943782,15.2094313 L47.076661,12.9292649 C46.5996569,14.1497981 46.0261249,15.7364674 45.3560477,17.6893204 L48.7972743,17.6893204 Z M63.6013629,10.3828017 C63.6013629,10.4937592 63.4593995,10.5436894 63.1754685,10.5325936 L62.8006814,10.5159501 L62.4940375,10.5159501 C62.3123216,10.5159501 62.2044295,10.5464629 62.1703578,10.6074896 C62.136286,10.6685163 62.1192504,10.8543674 62.1192504,11.1650485 L62.1192504,20.7517337 C62.1192504,21.3398088 62.1135719,21.683772 62.1022147,21.7836338 C62.0908574,21.8834956 62.0567862,21.9334258 62,21.9334258 C61.9318566,21.9334258 61.8523571,21.8724001 61.7614991,21.7503467 L59.5809199,18.6380028 C58.3202663,16.8293946 56.7870618,14.5714421 54.9812606,11.8640777 L54.9982964,21.1511789 C55.0096537,21.2954237 55.0948317,21.3869624 55.253833,21.4257975 C55.4128344,21.4646326 55.7932963,21.4895977 56.39523,21.5006935 C56.5428741,21.5006935 56.6166951,21.5450758 56.6166951,21.6338419 C56.6166951,21.7447994 56.4690532,21.8002774 56.1737649,21.8002774 C56.0715497,21.8002774 55.7478733,21.783634 55.2027257,21.7503467 C55.0210099,21.739251 54.8449753,21.7337032 54.6746167,21.7337032 C54.6859739,21.7337032 54.5865996,21.7447988 54.3764906,21.7669903 C54.1663817,21.7891818 53.8455445,21.8002774 53.4139693,21.8002774 L53.2436116,21.8002774 C52.9823951,21.8002774 52.8517888,21.7503472 52.8517888,21.6504854 C52.8517888,21.5506236 52.9653595,21.5006935 53.1925043,21.5006935 C53.8625814,21.4895977 54.2515611,21.4479893 54.3594549,21.3758669 C54.4673486,21.3037444 54.5212947,21.0679632 54.5212947,20.668516 L54.5212947,12.4632455 C54.5212947,11.5422978 54.3282245,10.9653271 53.9420784,10.7323162 C53.7603625,10.6213587 53.436686,10.5658807 52.9710392,10.5658807 C52.6757509,10.5658807 52.528109,10.5104028 52.528109,10.3994452 C52.528109,10.2995834 52.6132871,10.2496533 52.7836457,10.2496533 C53.0107905,10.2496533 53.3003957,10.2552011 53.6524702,10.2662968 C54.0045446,10.2773926 54.1919363,10.2829404 54.2146508,10.2829404 C54.2487225,10.2829404 54.4077215,10.2773926 54.6916525,10.2662968 C55.0664414,10.2662968 55.4298676,10.260749 55.7819421,10.2496533 L61.6592845,18.7877947 L61.6592845,11.3814147 C61.6592845,11.0374463 61.653606,10.829404 61.6422487,10.7572816 C61.6308915,10.6851591 61.5854632,10.6296812 61.5059625,10.590846 C61.4264618,10.5520109 61.1538922,10.5325936 60.6882453,10.5325936 C60.2793847,10.5325936 60.0749574,10.4826635 60.0749574,10.3828017 C60.0749574,10.2718441 60.2112422,10.2163662 60.483816,10.2163662 L61.5570698,10.2163662 C61.7387857,10.2274619 61.8466779,10.2330097 61.8807496,10.2330097 C61.8921068,10.2330097 61.9943204,10.2274619 62.1873935,10.2163662 L63.2265758,10.2163662 C63.4764351,10.2163662 63.6013629,10.2718441 63.6013629,10.3828017 Z M75.3219761,16.0249653 C75.3219761,17.9778184 74.6235164,19.4979141 73.2265758,20.5852982 C72.2044242,21.3841926 70.8358973,21.7836338 69.120954,21.7836338 C69.075525,21.7836338 68.8739371,21.778086 68.516184,21.7669903 C68.1584309,21.7558945 67.638845,21.7503467 66.9574106,21.7503467 L66.1056218,21.7503467 L64.7597956,21.7669903 C64.6802949,21.778086 64.5951169,21.7836338 64.5042589,21.7836338 C64.2884714,21.7836338 64.1805792,21.7281559 64.1805792,21.6171983 C64.1805792,21.5173365 64.3622923,21.4674064 64.725724,21.4674064 C65.1913709,21.4674064 65.4809761,21.3841895 65.5945486,21.2177531 C65.6399775,21.1400828 65.6626917,20.9292666 65.6626917,20.5852982 L65.6626917,11.6144244 C65.6626917,11.0707324 65.6201026,10.7545081 65.5349233,10.665742 C65.449744,10.576976 65.1572995,10.5325936 64.6575809,10.5325936 C64.3963644,10.5325936 64.2657581,10.4715679 64.2657581,10.3495146 C64.2657581,10.2607485 64.3622932,10.2163662 64.5553663,10.2163662 C64.544009,10.2163662 64.6689368,10.221914 64.9301533,10.2330097 C65.1913698,10.2441055 65.4469039,10.2496533 65.6967632,10.2496533 L67.5195911,10.2496533 C69.5638944,10.2496533 71.0119208,10.3883481 71.8637138,10.665742 C72.8972227,10.9986147 73.7319673,11.6560284 74.3679727,12.6380028 C75.0039782,13.6199772 75.3219761,14.7489534 75.3219761,16.0249653 Z M73.4139693,15.9583911 C73.4139693,14.1164956 73.0448646,12.7656076 72.306644,11.9056865 C71.5684233,11.0457655 70.4156807,10.6158114 68.8483816,10.6158114 C68.0874465,10.6158114 67.6274852,10.6934805 67.4684838,10.8488211 C67.4003404,10.9264914 67.3662692,11.1927855 67.3662692,11.6477115 L67.3662692,20.5020804 C67.3662692,20.8127616 67.374787,21.0013866 67.3918228,21.0679612 C67.4088587,21.1345357 67.4571262,21.1900136 67.5366269,21.2343967 C67.8092007,21.3675457 68.3827327,21.4341193 69.2572402,21.4341193 C70.4838221,21.4341193 71.4718872,21.0124869 72.2214651,20.1692094 C73.0164719,19.281549 73.4139693,17.8779569 73.4139693,15.9583911 Z M86.1567291,21.2843273 C86.1567291,21.7503491 85.7592317,21.9833564 84.9642249,21.9833564 C84.0783601,21.9833564 83.3855789,21.6227498 82.8858603,20.9015257 C82.6700727,20.5908445 82.5309486,20.2912636 82.4684838,20.0027739 C82.406019,19.7142843 82.3123232,18.9819754 82.1873935,17.8058252 C82.1192501,17.0956969 81.8864302,16.5936214 81.4889267,16.2995839 C81.0914233,16.0055464 80.4440704,15.8474342 79.5468484,15.8252427 L79.5468484,21.0679612 C79.5468484,21.2898763 79.7285615,21.4285712 80.0919932,21.4840499 C80.1942083,21.4951457 80.455421,21.5062413 80.8756388,21.517337 C81.023283,21.517337 81.0971039,21.5617194 81.0971039,21.6504854 C81.0971039,21.7503472 81.0005688,21.8002774 80.8074957,21.8002774 L80.6030664,21.8002774 C80.5008513,21.7891816 80.0068187,21.7836338 79.120954,21.7836338 C78.9505954,21.7836338 78.6609901,21.7891816 78.2521295,21.8002774 L76.8040886,21.8002774 C76.5542293,21.8002774 76.4293015,21.7503472 76.4293015,21.6504854 C76.4293015,21.5728151 76.593979,21.5284328 76.923339,21.517337 C77.4571293,21.5062413 77.7467346,21.4396677 77.7921635,21.3176144 C77.8375925,21.2621356 77.8603066,21.0457717 77.8603066,20.668516 L77.8603066,11.481276 C77.8603066,11.0374458 77.8120391,10.7711516 77.7155026,10.6823856 C77.618966,10.5936195 77.3265215,10.5436894 76.8381601,10.5325936 C76.5542291,10.5325936 76.4122658,10.4826635 76.4122658,10.3828017 C76.4122658,10.2718441 76.5031223,10.2163662 76.6848382,10.2163662 C76.7189099,10.2163662 76.7700167,10.221914 76.8381601,10.2330097 L79.1039182,10.2829404 C79.331063,10.2829404 79.649061,10.2773926 80.0579216,10.2662968 C80.5122112,10.2441053 80.8302092,10.2330097 81.011925,10.2330097 C82.0681484,10.2330097 82.9057323,10.4632432 83.5247019,10.9237171 C84.1436715,11.3841909 84.4531516,12.0083178 84.4531516,12.7961165 C84.4531516,13.5728194 84.1351537,14.2135897 83.4991482,14.7184466 C82.8631428,15.2233035 82.0000055,15.5201105 80.9097104,15.6088766 C80.8074952,15.6199723 80.7507099,15.6366157 80.7393526,15.6588072 C80.7393526,15.7031902 80.796138,15.7253814 80.9097104,15.7253814 C82.1022206,15.925105 82.9227689,16.3328679 83.3713799,16.9486824 C83.8199909,17.5644968 84.118114,18.6768297 84.2657581,20.2857143 C84.356616,21.1955663 84.674614,21.6504854 85.2197615,21.6504854 C85.3901201,21.6504854 85.4752981,21.6171987 85.4752981,21.5506241 C85.4752981,21.5395284 85.4696196,21.5284328 85.4582624,21.517337 C85.4014761,21.3952837 85.3730835,21.2954234 85.3730835,21.2177531 C85.3730835,20.9847422 85.4980112,20.8682386 85.7478705,20.8682386 C86.0204443,20.8682386 86.1567291,21.0069334 86.1567291,21.2843273 Z M82.6303237,12.9459085 C82.6303237,11.3592154 81.9261853,10.5658807 80.5178876,10.5658807 C80.1430986,10.5658807 79.8875646,10.6158109 79.7512777,10.7156727 C79.6149908,10.8155345 79.5468484,10.9930639 79.5468484,11.2482663 L79.5468484,15.4757282 C80.6371434,15.4868239 81.4236205,15.2926511 81.9063032,14.8932039 C82.3889859,14.4937567 82.6303237,13.8446647 82.6303237,12.9459085 Z M95.6286201,19.0873786 C95.6286201,19.1317617 95.617263,19.4036036 95.5945486,19.9029126 C95.5718341,20.4022216 95.560477,20.879332 95.560477,21.334258 L95.560477,21.8834951 C94.4474675,21.8280164 92.2441959,21.8002774 88.9505963,21.8002774 C88.5530928,21.8002774 88.1612739,21.8058252 87.7751278,21.8169209 L86.8211244,21.8169209 C86.6053368,21.8169209 86.4974446,21.7669908 86.4974446,21.667129 C86.4974446,21.6005545 86.5315158,21.5617199 86.5996593,21.5506241 C86.633731,21.5506241 86.8495153,21.5339807 87.2470187,21.5006935 C87.542307,21.478502 87.7211808,21.4174762 87.7836457,21.3176144 C87.8461105,21.2177526 87.8773424,20.9570063 87.8773424,20.5353675 L87.8773424,11.1816921 C87.8773424,10.8599152 87.8290749,10.6685163 87.7325383,10.6074896 C87.6360018,10.5464629 87.3265216,10.5159501 86.8040886,10.5159501 C86.6223727,10.5159501 86.5315162,10.4660199 86.5315162,10.3661581 C86.5315162,10.2662963 86.656444,10.2163662 86.9063032,10.2163662 L89.8194208,10.2330097 C89.9216359,10.2330097 90.5633104,10.2274619 91.7444634,10.2163662 L94.1294719,10.2163662 C94.4701891,10.2163662 94.7825085,10.194175 95.0664395,10.149792 C95.089154,10.6269095 95.1402608,11.287097 95.2197615,12.1303745 L95.2879046,12.8460472 C95.2992618,12.9015259 95.3049404,12.9736473 95.3049404,13.0624133 C95.3049404,13.1733709 95.2538336,13.2288488 95.1516184,13.2288488 C95.0266888,13.2288488 94.9358322,13.090154 94.879046,12.8127601 C94.6632584,11.814142 94.3111893,11.1816934 93.8228279,10.9153953 C93.4593963,10.7156717 92.5054024,10.6158114 90.9608177,10.6158114 L89.5638842,10.6158114 L89.5638842,15.4923717 L89.9727428,15.4923717 C91.2447537,15.4923717 92.0198737,15.3980592 92.2981261,15.2094313 C92.5763784,15.0208035 92.7666094,14.4715718 92.8688245,13.5617198 C92.891539,13.328709 92.9540029,13.2122053 93.0562181,13.2122053 C93.1811477,13.2122053 93.2436116,13.3120656 93.2436116,13.5117892 C93.2436116,13.7115128 93.2322545,14.0055459 93.20954,14.3938974 C93.1868256,14.7822488 93.1754685,15.0762819 93.1754685,15.2760055 C93.1754685,16.4632514 93.1981826,17.2787773 93.2436116,17.7226075 C93.2549688,17.833565 93.2606474,17.9278776 93.2606474,18.0055479 C93.2606474,18.1497927 93.1981835,18.221914 93.0732538,18.221914 C92.9937532,18.221914 92.9398071,18.1747578 92.911414,18.0804438 C92.8830209,17.9861299 92.8347533,17.6782273 92.7666099,17.1567268 C92.675752,16.5020772 92.3975037,16.0970882 91.9318569,15.9417476 C91.7274266,15.875173 91.1936443,15.8418863 90.330494,15.8418863 L89.5638842,15.8418863 L89.5638842,21.4341193 C92.062477,21.4341193 93.527539,21.3841891 93.9591141,21.2843273 C94.708692,21.117891 95.1345821,20.4077733 95.2367973,19.1539528 C95.2595118,18.8765589 95.3333327,18.7378641 95.4582624,18.7378641 C95.5718348,18.7378641 95.6286201,18.8543678 95.6286201,19.0873786 Z M112,10.3495146 C112,10.4493764 111.80693,10.5048543 111.420784,10.5159501 C110.989209,10.5270458 110.702443,10.6657407 110.560477,10.9320388 C110.418511,11.198337 110.199888,11.764212 109.9046,12.629681 C109.393524,14.1497996 108.939241,15.4424357 108.541738,16.5076283 C107.860303,18.3273323 107.241343,20.0859832 106.684838,21.7836338 C106.639409,21.9278787 106.582624,22 106.51448,22 C106.457694,22 106.403748,21.9445221 106.352641,21.8335645 C106.301533,21.7226069 106.151052,21.3342613 105.901193,20.668516 C105.58319,19.803047 105.236799,18.9320432 104.86201,18.0554785 C104.566722,17.3675416 104.277117,16.6574239 103.993186,15.925104 C103.198179,17.8002868 102.408863,19.7586583 101.625213,21.8002774 C101.579784,21.9334265 101.522999,22 101.454855,22 C101.398069,22 101.329927,21.9056875 101.250426,21.7170596 C100.898351,20.8959737 99.5922884,17.4951755 97.3321976,11.5145631 C97.1731963,11.0929244 97.053947,10.8294041 96.9744463,10.7239945 C96.8949457,10.6185848 96.6961969,10.5603329 96.3781942,10.5492372 C95.8330467,10.5270457 95.560477,10.4493765 95.560477,10.3162275 C95.560477,10.2163657 95.6513336,10.1664355 95.8330494,10.1664355 C95.9125501,10.1664355 95.9806925,10.1719833 96.0374787,10.1830791 C96.6394124,10.2163663 97.2867654,10.2330097 97.9795571,10.2330097 C98.115844,10.2330097 98.3515032,10.224688 98.6865417,10.2080444 C99.0215803,10.1914007 99.4559882,10.1830791 99.9897785,10.1830791 L100.177172,10.1830791 C100.370245,10.1830791 100.46678,10.2330092 100.46678,10.332871 C100.46678,10.4549243 100.290746,10.5214979 99.9386712,10.5325936 C99.2345223,10.5547851 98.8824532,10.6435498 98.8824532,10.7988904 C98.8824532,11.1095716 99.9273036,13.9999726 102.017036,19.4701803 C102.777971,17.5949976 103.345824,16.2135967 103.720613,15.3259362 L102.034072,11.0651872 C101.943214,10.8321764 101.838161,10.6823859 101.71891,10.6158114 C101.599659,10.5492368 101.381035,10.5104023 101.063032,10.4993065 C100.74503,10.4882108 100.586031,10.4382806 100.586031,10.3495146 C100.586031,10.2274612 100.70528,10.1664355 100.943782,10.1664355 C101.125498,10.1664355 101.346961,10.1775311 101.608177,10.1997226 C101.869394,10.2219141 102.323676,10.2330097 102.971039,10.2330097 L104.265758,10.2330097 L106.139693,10.2662968 C106.559911,10.2662968 107.065301,10.2441056 107.655877,10.1997226 C107.724021,10.1886269 107.80352,10.1830791 107.894378,10.1830791 C108.166952,10.1830791 108.303237,10.238557 108.303237,10.3495146 C108.303237,10.4493764 108.206702,10.4993065 108.013629,10.4993065 L107.72402,10.4993065 C107.212945,10.4993065 106.826804,10.5658801 106.565588,10.6990291 C106.452015,10.7545079 106.24191,11.1539491 105.935264,11.8973648 C105.798977,12.2080459 105.571836,12.7350864 105.253833,13.4785021 L104.947189,14.2274619 C105.02669,14.449377 105.276545,15.0651822 105.696763,16.074896 C106.241911,17.3620037 106.690515,18.4660148 107.042589,19.3869626 C107.678595,17.5894501 108.428161,15.4646447 109.291312,13.0124827 C109.745601,11.7142792 109.972743,10.9930659 109.972743,10.8488211 C109.972743,10.6380017 109.773994,10.5325936 109.376491,10.5325936 C108.819986,10.5325936 108.541738,10.4715679 108.541738,10.3495146 C108.541738,10.238557 108.655308,10.1830791 108.882453,10.1830791 C109.075526,10.1830791 109.228847,10.1886269 109.342419,10.1997226 C109.592278,10.2219141 109.81942,10.2330097 110.02385,10.2330097 L111.386712,10.2163662 C111.727429,10.2163662 111.914821,10.2302356 111.948893,10.257975 C111.982964,10.2857144 112,10.3162273 112,10.3495146 Z M105.850085,10.8488211 C105.850085,10.6490975 105.498016,10.5492372 104.793867,10.5492372 L104.589438,10.5492372 L104.29983,10.5658807 C103.890969,10.5880722 103.686542,10.6601936 103.686542,10.7822469 C103.686542,10.8044384 104.021575,11.7642069 104.691652,13.6615811 C104.952869,13.1067933 105.25951,12.3744844 105.611584,11.4646325 C105.657013,11.3425791 105.725156,11.1816931 105.816014,10.9819695 C105.838728,10.8932034 105.850085,10.8488211 105.850085,10.8488211 Z" id="Andrew" fill="#000000"></path>
        <path d="M37,22.2642559 C37,22.4478451 36.9020904,22.5549373 36.7062682,22.5855355 C36.5104461,22.6161337 35.8100157,22.6620303 34.6049563,22.7232267 C33.6710352,22.7538249 33.0685145,22.860917 32.7973761,23.0445063 C32.5262377,23.2280955 32.3304185,23.7023606 32.2099125,24.4673157 C31.5170033,28.2920914 30.2065208,31.734338 28.2784257,34.7941586 C28.8809554,35.7733011 29.3177829,36.5382448 29.5889213,37.0890125 C30.311957,38.5577264 31.0123873,39.4756588 31.6902332,39.8428373 C32.3680792,40.2100157 33.7312823,40.4394988 35.7798834,40.5312935 C36.4125396,40.5618917 36.728863,40.7301793 36.728863,41.0361613 C36.728863,41.280947 36.5179807,41.403338 36.0962099,41.403338 C35.3430477,41.403338 33.9572501,41.3574413 31.9387755,41.2656467 C31.2458663,41.2350485 30.7789128,41.2197497 30.5379009,41.2197497 C29.5437268,41.2197497 28.4591895,41.2809451 27.2842566,41.403338 C27.1637506,41.0667577 26.651608,40.0876298 25.7478134,38.4659249 L25.5218659,38.0987483 C23.1117469,40.6995958 19.9635763,42 16.0772595,42 C13.0947373,42 10.6695915,41.1891597 8.80174927,39.5674548 C6.93390708,37.9457499 6,35.8345054 6,33.2336579 C6,28.8887126 8.65109108,25.461765 13.9533528,22.9527121 C13.8930998,22.8609175 13.6972806,22.6467333 13.3658892,22.310153 C11.8294384,20.6884481 10.8729368,19.548682 10.4963557,18.8908206 C10.1197746,18.2329592 9.93148688,17.3685728 9.93148688,16.2976356 C9.93148688,14.125163 10.6319172,12.3657925 12.0327988,11.0194715 C13.4336805,9.67315043 15.2487741,9 17.4781341,9 C19.6171147,9 21.3418302,9.55840888 22.6523324,10.6752434 C23.9628345,11.7920779 24.6180758,13.2531203 24.6180758,15.0584145 C24.6180758,17.965244 22.5243164,20.2753739 18.3367347,21.9888734 C18.5174936,22.2030609 19.2706445,23.0903955 20.5962099,24.650904 C23.2473408,27.7413228 25.5821085,30.7704998 27.6005831,33.7385257 C29.7395637,30.2503303 30.8090379,27.0069691 30.8090379,24.0083449 C30.8090379,23.3351844 30.6734707,22.9450631 30.4023324,22.8379694 C30.131194,22.7308757 29.1671609,22.6773296 27.5102041,22.6773296 C26.6064095,22.6773296 26.154519,22.5243409 26.154519,22.2183588 C26.154519,21.9735732 26.4105902,21.8511822 26.9227405,21.8511822 L34.2434402,21.8511822 C35.6292586,21.8511822 36.3824095,21.8664811 36.5029155,21.8970793 C36.8343068,21.9888739 37,22.1112649 37,22.2642559 Z M21,15.9527559 C21,14.1889676 20.6370407,12.755911 19.9111111,11.6535433 C19.1851816,10.5511756 18.2444502,10 17.0888889,10 C15.9036978,10 14.9259298,10.4173187 14.1555556,11.2519685 C13.3851813,12.0866183 13,13.133852 13,14.3937008 C13,16.7244211 14.599984,19.2598288 17.8,22 C19.933344,20.7716474 21,18.7559195 21,15.9527559 Z M25,37.7289973 C23.1114457,34.4733351 19.5046706,29.8970485 14.1795666,24 C12.6625311,25.1364104 11.5866905,26.303517 10.9520124,27.501355 C10.3173343,28.699193 10,30.1427196 10,31.8319783 C10,34.4426508 10.7352868,36.6232975 12.2058824,38.3739837 C13.6764779,40.12467 15.5108249,41 17.7089783,41 C20.4644101,41 22.8947263,39.9096767 25,37.7289973 Z" id="&amp;" fill="#BDBDBD"></path>
        <path d="M53.0296232,30.334728 C53.0296232,30.4463046 52.8882192,30.4965133 52.605407,30.4853556 L52.2320966,30.4686192 L51.9266609,30.4686192 C51.7456611,30.4686192 51.638194,30.4993023 51.6042565,30.5606695 C51.5703191,30.6220366 51.5533506,30.8089245 51.5533506,31.1213389 L51.5533506,40.7615063 C51.5533506,41.3528621 51.5476944,41.6987443 51.5363819,41.7991632 C51.5250694,41.8995821 51.4911325,41.9497908 51.43457,41.9497908 C51.3666951,41.9497908 51.2875088,41.8884246 51.1970089,41.7656904 L49.0250216,38.6359833 C47.7693351,36.8172852 46.2421718,34.5467361 44.4434858,31.8242678 L44.4604544,41.1631799 C44.4717669,41.3082295 44.5566093,41.4002787 44.7149842,41.4393305 C44.8733591,41.4783823 45.2523218,41.5034867 45.8518838,41.5146444 C45.9989462,41.5146444 46.0724763,41.5592743 46.0724763,41.6485356 C46.0724763,41.7601121 45.9254161,41.8158996 45.6312913,41.8158996 C45.5294789,41.8158996 45.2070778,41.7991633 44.6640782,41.7656904 C44.4830784,41.7545327 44.3077374,41.748954 44.13805,41.748954 C44.1493625,41.748954 44.0503797,41.7601115 43.8410986,41.7824268 C43.6318176,41.8047421 43.3122445,41.8158996 42.8823699,41.8158996 L42.7126833,41.8158996 C42.4524961,41.8158996 42.3224044,41.7656909 42.3224044,41.665272 C42.3224044,41.5648531 42.4355276,41.5146444 42.6617774,41.5146444 C43.3292143,41.5034867 43.7166613,41.4616461 43.82413,41.3891213 C43.9315987,41.3165966 43.9853322,41.0794999 43.9853322,40.6778243 L43.9853322,32.4267782 C43.9853322,31.5006927 43.7930227,30.9205033 43.408398,30.6861925 C43.2273982,30.5746159 42.904997,30.5188285 42.4411849,30.5188285 C42.1470602,30.5188285 42,30.463041 42,30.3514644 C42,30.2510455 42.0848424,30.2008368 42.2545298,30.2008368 C42.4807796,30.2008368 42.7692438,30.2064156 43.119931,30.2175732 C43.4706182,30.2287309 43.6572715,30.2343096 43.6798965,30.2343096 C43.7138339,30.2343096 43.8722064,30.2287309 44.1550187,30.2175732 C44.5283309,30.2175732 44.8903252,30.2119945 45.2410124,30.2008368 L51.095197,38.7866109 L51.095197,31.3389121 C51.095197,30.9930248 51.0895408,30.7838218 51.0782284,30.7112971 C51.0669159,30.6387723 51.0216666,30.5829849 50.9424791,30.5439331 C50.8632917,30.5048813 50.591796,30.4853556 50.1279839,30.4853556 C49.7207342,30.4853556 49.5171125,30.4351469 49.5171125,30.334728 C49.5171125,30.2231515 49.6528603,30.167364 49.9243601,30.167364 L50.9933851,30.167364 C51.174385,30.1785217 51.281852,30.1841004 51.3157895,30.1841004 C51.327102,30.1841004 51.4289129,30.1785217 51.6212252,30.167364 L52.6563129,30.167364 C52.9051877,30.167364 53.0296232,30.2231515 53.0296232,30.334728 Z M58.1541559,41.665272 C58.1541559,41.7545332 58.086282,41.7991632 57.9505321,41.7991632 L57.7808456,41.7991632 C57.7129706,41.7656902 56.9437328,41.748954 55.473109,41.748954 C55.1902967,41.748954 54.9074887,41.7601115 54.6246764,41.7824268 C54.4776141,41.7935844 54.2513676,41.7991632 53.9459304,41.7991632 C53.798868,41.7991632 53.7253379,41.7489545 53.7253379,41.6485356 C53.7253379,41.5592743 53.8723981,41.5090656 54.1665229,41.4979079 C54.6190225,41.4867503 54.884862,41.4337522 54.9640495,41.3389121 C55.0432369,41.2440721 55.08283,40.9232942 55.08283,40.376569 L55.08283,31.5732218 C55.08283,31.0264966 55.0545492,30.7196656 54.9979868,30.6527197 C54.9301118,30.5411431 54.619023,30.4741982 54.064711,30.4518828 C53.8497736,30.4407252 53.7423066,30.3960952 53.7423066,30.3179916 C53.7423066,30.2175727 53.8101805,30.167364 53.9459304,30.167364 L56.2366983,30.2008368 C56.4063857,30.2008368 56.734443,30.1952581 57.2208801,30.1841004 L57.8656888,30.167364 C58.0466887,30.167364 58.1371872,30.2175727 58.1371872,30.3179916 C58.1371872,30.4072529 57.8883162,30.4630403 57.3905666,30.4853556 C57.1077543,30.4965133 56.9352414,30.546722 56.8730227,30.6359833 C56.810804,30.7252445 56.7796951,30.9595518 56.7796951,31.3389121 L56.7796951,40.2761506 C56.7796951,40.9121371 56.8079759,41.2580192 56.8645384,41.3138075 C56.9889758,41.4365418 57.3566262,41.5090654 57.9675007,41.5313808 C58.0919381,41.5313808 58.1541559,41.5760107 58.1541559,41.665272 Z M68.9122807,38.0669456 C68.9122807,38.0446303 68.9009684,38.1952564 68.8783434,38.5188285 C68.8330934,39.1659726 68.8104688,39.790792 68.8104688,40.3933054 C68.8104688,40.4602514 68.8217811,40.5969306 68.8444061,40.8033473 C68.8670311,41.0097639 68.8783434,41.2580181 68.8783434,41.5481172 L68.8783434,41.6987448 C68.8783434,41.8437943 68.8330941,41.916318 68.7425942,41.916318 C68.6520943,41.916318 68.572908,41.8326368 68.5050331,41.665272 C68.3466582,41.2970693 68.1882857,41.0571833 68.0299108,40.9456067 C67.2154115,41.6485391 66.2368958,42 65.0943342,42 C63.4313981,42 62.054123,41.4281787 60.9624676,40.2845188 C59.8708123,39.140859 59.3249928,37.6987535 59.3249928,35.958159 C59.3249928,34.2064069 59.825563,32.7754588 60.8267184,31.665272 C61.8278739,30.5550851 63.1203065,30 64.7040552,30 C65.2809922,30 65.7419693,30.0474193 66.0870003,30.1422594 C66.4320313,30.2370995 66.8590714,30.4295662 67.3681334,30.7196653 C67.6170082,30.8647148 67.8036615,30.9372385 67.9280989,30.9372385 C68.0299114,30.9372385 68.1260661,30.8479786 68.216566,30.6694561 C68.3636284,30.3570417 68.4824078,30.2008368 68.5729077,30.2008368 C68.6634076,30.2008368 68.7086569,30.2454668 68.7086569,30.334728 C68.7086569,30.3793587 68.6973446,30.4518823 68.6747196,30.5523013 C68.5502822,31.0878688 68.4880644,32.0920428 68.4880644,33.5648536 C68.4880644,33.776849 68.4710959,33.8995814 68.4371585,33.9330544 C68.403221,33.9665274 68.3579717,33.9832636 68.3014093,33.9832636 C68.1882844,33.9832636 68.1147543,33.8772674 68.0808168,33.665272 C67.9337544,32.7726594 67.7244765,32.1087888 67.4529767,31.6736402 C66.8986647,30.7810276 66.0276159,30.334728 64.8398044,30.334728 C63.9234927,30.334728 63.1995041,30.6359803 62.6678171,31.2384937 C61.7062554,32.3207864 61.2254817,33.90515 61.2254817,35.9916318 C61.2254817,37.8549605 61.621413,39.2998554 62.4132873,40.3263598 C63.1033492,41.2189724 64.0196472,41.665272 65.1622088,41.665272 C65.7504583,41.665272 66.2877936,41.523014 66.7742307,41.2384937 C67.2606678,40.9539735 67.6339743,40.5662507 67.8941616,40.0753138 C68.1882864,39.5062733 68.3975643,38.8870326 68.5220017,38.2175732 C68.5672517,37.9497895 68.6407818,37.8158996 68.7425942,37.8158996 C68.8557191,37.8158996 68.9122807,37.8995808 68.9122807,38.0669456 Z M81.1806155,36.0585774 C81.1806155,37.7210683 80.6743891,39.126912 79.6619212,40.2761506 C78.6494533,41.4253893 77.4079261,42 75.9373023,42 C74.3761786,42 73.0639493,41.4170212 72.0005752,40.251046 C70.9372011,39.0850709 70.405522,37.6485441 70.405522,35.9414226 C70.405522,34.2008281 70.9174045,32.7754588 71.9411849,31.665272 C72.9649653,30.5550851 74.2743665,30 75.8694277,30 C77.3739889,30 78.6353127,30.5801895 79.6534369,31.7405858 C80.671561,32.9009821 81.1806155,34.3402982 81.1806155,36.0585774 Z M79.2801265,36.1422594 C79.2801265,34.1004082 78.8559145,32.5104659 78.0074777,31.3723849 C77.4757906,30.6582949 76.7348336,30.3012552 75.7845844,30.3012552 C74.8795852,30.3012552 74.1782213,30.5746137 73.6804717,31.1213389 C72.7641599,32.125528 72.3060109,33.7601003 72.3060109,36.0251046 C72.3060109,37.8214874 72.625584,39.2161736 73.2647397,40.209205 C73.9038954,41.2022365 74.8003969,41.6987448 75.9542709,41.6987448 C77.0289575,41.6987448 77.8377885,41.2301302 78.380788,40.292887 C78.98035,39.2552249 79.2801265,37.8716962 79.2801265,36.1422594 Z M91.3109002,40.4769874 C91.3109002,40.7670865 91.2939317,41.2468586 91.2599942,41.916318 L91.0733391,41.916318 C91.0054641,41.916318 90.8414355,41.9051605 90.5812482,41.8828452 C90.3210609,41.8605299 90.0269406,41.8493724 89.6988783,41.8493724 L82.6399195,41.7991632 C82.4476071,41.7991632 82.3514524,41.7489545 82.3514524,41.6485356 C82.3514524,41.570432 82.5041687,41.5202233 82.809606,41.4979079 C83.2394806,41.4755926 83.4968359,41.4281733 83.5816796,41.3556485 C83.6665233,41.2831238 83.7089445,41.0739208 83.7089445,40.7280335 L83.7089445,31.3221757 C83.7089445,30.9093424 83.6665233,30.6694564 83.5816796,30.6025105 C83.4968359,30.5355645 83.1942313,30.5020921 82.6738568,30.5020921 C82.4589195,30.5020921 82.3514524,30.4407259 82.3514524,30.3179916 C82.3514524,30.2175727 82.4193263,30.167364 82.5550762,30.167364 L82.7077941,30.167364 C83.0811063,30.200837 83.8220633,30.2175732 84.9306874,30.2175732 C85.0324998,30.2175732 85.2304654,30.2092051 85.5245902,30.1924686 C85.8187149,30.1757321 86.0619298,30.167364 86.2542422,30.167364 L86.4408973,30.167364 C86.6445222,30.167364 86.746333,30.2231515 86.746333,30.334728 C86.746333,30.401674 86.7152242,30.4435146 86.6530055,30.460251 C86.5907868,30.4769875 86.3956492,30.4909344 86.067587,30.5020921 C85.7395248,30.5132497 85.5443872,30.5662478 85.4821685,30.6610879 C85.4199498,30.7559279 85.388841,31.0488121 85.388841,31.539749 L85.388841,41.4142259 C85.6942782,41.4253836 86.1184902,41.4309623 86.6614898,41.4309623 C87.9850512,41.4309623 88.9183177,41.3640174 89.4613172,41.2301255 C90.0043168,41.0962336 90.3719672,40.8451901 90.5642796,40.4769874 C90.7565919,40.1087848 90.8697151,39.6122765 90.9036526,38.9874477 C90.9149651,38.8423982 90.982839,38.7698745 91.1072764,38.7698745 C91.2543388,38.7698745 91.3222127,38.8535556 91.3109002,39.0209205 L91.2939316,39.4393305 L91.2939316,39.5899582 C91.305244,39.6680618 91.3109002,39.7461642 91.3109002,39.8242678 L91.3109002,40.4769874 Z M101,39.0878661 C101,39.1324967 100.988688,39.4058552 100.966063,39.9079498 C100.943438,40.4100444 100.932125,40.8898164 100.932125,41.3472803 L100.932125,41.8995816 C99.8235013,41.8437933 97.628911,41.8158996 94.3482888,41.8158996 C93.9523516,41.8158996 93.5620765,41.8214783 93.1774518,41.832636 L92.2272074,41.832636 C92.01227,41.832636 91.904803,41.7824273 91.904803,41.6820084 C91.904803,41.6150624 91.93874,41.5760112 92.0066149,41.5648536 C92.0405524,41.5648536 92.2554865,41.5481173 92.6514236,41.5146444 C92.9455484,41.492329 93.1237175,41.4309628 93.1859362,41.3305439 C93.2481549,41.230125 93.2792637,40.967924 93.2792637,40.5439331 L93.2792637,31.1380753 C93.2792637,30.8145033 93.2311864,30.6220366 93.1350302,30.5606695 C93.038874,30.4993023 92.7306133,30.4686192 92.2102387,30.4686192 C92.0292389,30.4686192 91.9387403,30.4184105 91.9387403,30.3179916 C91.9387403,30.2175727 92.0631758,30.167364 92.3120506,30.167364 L95.21369,30.1841004 C95.3155024,30.1841004 95.9546485,30.1785217 97.1311475,30.167364 L99.5067587,30.167364 C99.8461334,30.167364 100.157222,30.145049 100.440035,30.1004184 C100.462659,30.5801977 100.513565,31.2440683 100.592752,32.0920502 L100.660627,32.8117155 C100.671939,32.8675038 100.677596,32.9400274 100.677596,33.0292887 C100.677596,33.1408653 100.62669,33.1966527 100.524878,33.1966527 C100.40044,33.1966527 100.309942,33.0571841 100.253379,32.7782427 C100.038442,31.7740536 99.6877601,31.1380767 99.201323,30.8702929 C98.8393233,30.6694551 97.8890883,30.5690377 96.3505896,30.5690377 L94.9591602,30.5690377 L94.9591602,35.4728033 L95.3664078,35.4728033 C96.6334068,35.4728033 97.4054727,35.3779647 97.6826287,35.1882845 C97.9597847,34.9986044 98.1492661,34.4463086 98.2510785,33.5313808 C98.2737035,33.29707 98.3359213,33.1799163 98.4377337,33.1799163 C98.5621711,33.1799163 98.6243888,33.2803337 98.6243888,33.4811715 C98.6243888,33.6820094 98.6130765,33.9776828 98.5904515,34.3682008 C98.5678266,34.7587188 98.5565142,35.0543923 98.5565142,35.2552301 C98.5565142,36.4490994 98.5791389,37.2691749 98.6243888,37.7154812 C98.6357013,37.8270577 98.6413575,37.9218964 98.6413575,38 C98.6413575,38.1450495 98.5791397,38.2175732 98.4547023,38.2175732 C98.3755149,38.2175732 98.3217814,38.1701539 98.2935001,38.0753138 C98.2652189,37.9804737 98.2171416,37.6708534 98.1492666,37.1464435 C98.0587667,36.4881418 97.7816148,36.0808934 97.3178027,35.9246862 C97.1141779,35.8577403 96.5824988,35.8242678 95.7227495,35.8242678 L94.9591602,35.8242678 L94.9591602,41.4476987 C97.4479081,41.4476987 98.9071975,41.39749 99.3370722,41.2970711 C100.083697,41.1297063 100.507909,40.4156269 100.609721,39.1548117 C100.632346,38.8758703 100.705876,38.7364017 100.830313,38.7364017 C100.943438,38.7364017 101,38.8535553 101,39.0878661 Z" id="Nicole" fill="#000000"></path>
    </g>
</svg>