<?xml version="1.0" encoding="UTF-8"?>
<svg width="60px" height="60px" viewBox="0 0 60 60" version="1.1" xmlns="http://www.w3.org/2000/svg" xmlns:xlink="http://www.w3.org/1999/xlink">
    <!-- Generator: Sketch 51.2 (57519) - http://www.bohemiancoding.com/sketch -->
    <title>wedding-logo-loader</title>
    <desc>Created with Sketch.</desc>
    <defs></defs>
    <g id="wedding-logo-loader" stroke="none" stroke-width="1" fill="none" fill-rule="evenodd">
        <rect id="Rectangle-path" fill="#FFFFFF" fill-rule="nonzero" x="0" y="0" width="60" height="60"></rect>
        <path d="M25.1543487,39.3790331 C25.1543487,39.5288235 25.0841355,39.6177602 24.943707,39.6458459 C24.8032785,39.6739316 24.4428508,39.6879742 23.8624131,39.6879742 C23.7126227,39.6879742 23.2913436,39.6786125 22.5985631,39.6598887 C21.2130022,39.6224411 20.2581028,39.6037176 19.7338365,39.6037176 C19.1159512,39.6037176 18.5729692,39.6130793 18.1048743,39.6318031 C17.1686844,39.6692507 16.5320849,39.6879742 16.1950565,39.6879742 C15.689514,39.6879742 15.4367466,39.5943566 15.4367466,39.4071187 C15.4367466,39.2198807 15.9703668,39.1169014 17.0376232,39.0981776 C17.2997564,39.0981776 17.4963533,39.079454 17.6274199,39.0420064 C17.9270006,39.0045589 18.0767887,38.8922178 18.0767887,38.7049798 C18.0767887,38.6113608 17.9644477,38.218167 17.7397621,37.5253865 L17.1499654,35.6998254 C17.0376226,35.2879018 16.7942169,34.5295994 16.419741,33.4248954 L15.914201,33.4248954 L13.7235277,33.3968098 C12.9371282,33.378086 12.1039317,33.3874478 11.2239133,33.4248954 C11.0553991,33.7993713 10.7370993,34.6419296 10.2690044,35.9525954 L9.65112218,37.7781565 C9.55750319,38.0590134 9.5106944,38.2836956 9.5106944,38.4522098 C9.5106944,38.7705143 9.71665308,38.976473 10.1285766,39.070092 C10.2221956,39.0888158 10.6809218,39.1262628 11.5047688,39.1824342 C11.766902,39.201158 11.8979666,39.2854138 11.8979666,39.4352042 C11.8979666,39.6037184 11.729455,39.6879742 11.3924266,39.6879742 L6.75830999,39.6598887 C6.64596721,39.6786125 6.52426435,39.6879742 6.39319777,39.6879742 C6.13106461,39.6879742 6,39.5943566 6,39.4071187 C6,39.2947759 6.2902145,39.2198818 6.87065221,39.1824342 C7.6196041,39.1449866 8.09705376,39.0045603 8.30301553,38.7611509 C8.5089773,38.5177415 8.84600059,37.7313538 9.31409552,36.4019643 C9.66984766,35.4657744 10.1847444,34.0802342 10.8588011,32.2453021 L14.2571532,22.8928122 C14.4256674,22.4808887 14.6597114,21.8349273 14.9592921,20.9549089 C15.1652539,20.3182998 15.3244038,20 15.4367466,20 C15.5490893,20 15.755048,20.4306409 16.0546288,21.2919355 C16.4291047,22.3966396 18.0767741,26.7592189 20.9976865,34.3798043 C21.3721624,35.3534417 21.7466328,36.3457881 22.1211087,37.3568731 C22.4394133,38.2181678 22.757713,38.7424263 23.0760176,38.9296642 C23.3194269,39.0794546 23.8998559,39.1449869 24.817322,39.1262631 C25.0420076,39.1262631 25.1543487,39.2105189 25.1543487,39.3790331 Z M16.2231421,32.8070132 C16.2044183,32.7508418 16.138886,32.5729684 16.0265432,32.2733876 C15.2775913,30.1014272 14.7346094,28.5754606 14.397581,27.6954421 C14.303962,27.4520328 14.1728974,27.096286 14.0043832,26.628191 L13.8358699,26.122651 C13.4988416,26.9277743 13.0869242,28.0418235 12.6001055,29.4648321 C12.0571154,31.0563549 11.6639215,32.1704041 11.4205122,32.8070132 C11.5890263,32.8070132 11.794985,32.7976514 12.0383944,32.7789276 L14.2290677,32.7789276 C14.659715,32.7789276 15.3243998,32.7882894 16.2231421,32.8070132 Z M35.0545069,27.9528931 C35.0545069,28.0090644 35.0240812,28.0418306 34.9632288,28.0511925 C34.9023765,28.0605544 34.6847156,28.074597 34.3102397,28.0933208 C34.0200208,28.1026827 33.8327857,28.1354489 33.7485286,28.1916203 C33.6642715,28.2477917 33.6034201,28.3928989 33.5659725,28.6269464 C33.3506488,29.7971837 32.9434123,30.8503815 32.3442508,31.7865713 C32.5314888,32.0861521 32.6672343,32.3201961 32.7514914,32.4887102 C32.9761769,32.9380814 33.1938378,33.2189341 33.4044805,33.3312769 C33.6151232,33.4436197 34.0387428,33.5138329 34.6753519,33.5419185 C34.8719518,33.5512804 34.9702502,33.6027701 34.9702502,33.6963891 C34.9702502,33.7712843 34.9047179,33.8087313 34.7736513,33.8087313 C34.5396039,33.8087313 34.108963,33.7946887 33.4817158,33.766603 C33.2663921,33.7572411 33.1212849,33.7525602 33.0463897,33.7525602 C32.737447,33.7525602 32.4004237,33.7712837 32.0353097,33.8087313 C31.9978621,33.7057504 31.8387122,33.4061742 31.5578553,32.9099936 L31.4876414,32.7976513 C30.7386895,33.5934127 29.7603858,33.9912874 28.5527008,33.9912874 C27.6258729,33.9912874 26.8722514,33.7432008 26.2918137,33.2470202 C25.7113759,32.7508396 25.4211614,32.1048783 25.4211614,31.3091169 C25.4211614,29.9797273 26.2449962,28.9312104 27.8926903,28.1635347 C27.8739665,28.135449 27.8131151,28.0699167 27.7101342,27.9669358 C27.2326774,27.4707552 26.9354415,27.1220297 26.8184178,26.9207489 C26.7013941,26.7194681 26.6428831,26.4549984 26.6428831,26.127332 C26.6428831,25.4626372 26.860544,24.9243361 27.2958723,24.5124125 C27.7312005,24.100489 28.2952465,23.8945303 28.988027,23.8945303 C29.6527218,23.8945303 30.1886824,24.0653824 30.595925,24.4070917 C31.0031676,24.748801 31.2067858,25.195825 31.2067858,25.748177 C31.2067858,26.6375573 30.5561436,27.3443701 29.2548397,27.8686364 C29.3110111,27.9341697 29.5450551,28.2056607 29.9569786,28.6831175 C30.7808257,29.6286692 31.5063619,30.5554833 32.1336091,31.4635875 C32.7983039,30.396331 33.1306464,29.4039847 33.1306464,28.4865186 C33.1306464,28.2805568 33.0885184,28.1611944 33.0042614,28.1284278 C32.9200043,28.0956611 32.620428,28.0792781 32.1055236,28.0792781 C31.8246666,28.0792781 31.6842403,28.0324693 31.6842403,27.9388503 C31.6842403,27.8639551 31.7638152,27.8265081 31.9229675,27.8265081 L34.1978975,27.8265081 C34.6285448,27.8265081 34.8625887,27.8311889 34.9000363,27.8405508 C35.0030172,27.8686365 35.0545069,27.9060836 35.0545069,27.9528931 Z M30.1254919,25.8886047 C30.1254919,25.3643384 30.0108104,24.9383784 29.7814439,24.610712 C29.5520774,24.2830455 29.2548416,24.1192148 28.8897275,24.1192148 C28.5152516,24.1192148 28.2063136,24.2432581 27.9629042,24.4913484 C27.7194948,24.7394387 27.597792,25.0507171 27.597792,25.4251931 C27.597792,26.1179736 28.1033269,26.8715951 29.114412,27.6860803 C29.7884687,27.3209662 30.1254919,26.7218137 30.1254919,25.8886047 Z M31.319128,32.5167958 C30.7480522,31.5244345 29.6574074,30.1295326 28.0471609,28.3320481 C27.5884278,28.6784383 27.2631067,29.0341851 27.0711878,29.3992992 C26.8792689,29.7644132 26.7833109,30.2044158 26.7833109,30.7193202 C26.7833109,31.5150816 27.0056526,32.1797664 27.4503428,32.7133947 C27.895033,33.2470229 28.4497172,33.513833 29.114412,33.513833 C29.9476209,33.513833 30.6825189,33.1814906 31.319128,32.5167958 Z M53.928,20.5336255 C53.928,20.6272445 53.8577868,20.6834151 53.7173583,20.7021389 C53.5769299,20.7208627 53.0760758,20.748948 52.2147811,20.7863955 C51.7092386,20.8051193 51.4190241,20.9080987 51.3441289,21.0953367 C51.2692337,21.2076794 51.2411485,21.806832 51.2598723,22.8928122 L51.2879578,26.1507366 C51.3066816,28.3226971 51.3160434,31.1593098 51.3160434,34.6606598 L51.3160434,39.4352042 C51.3160434,39.7535088 51.2505111,39.9126587 51.1194445,39.9126587 C50.9134827,39.9126587 49.5513469,38.3632877 47.0329962,35.2644993 C44.5146455,32.1657108 41.748246,28.6222854 38.7337146,24.6341166 L38.7337146,26.7124477 C38.7337146,27.423952 38.7430764,28.041828 38.7618002,28.5660943 L38.7618002,38.2556109 C38.7618002,38.6488106 38.883503,38.8922163 39.1269124,38.9858353 C39.5201121,39.1356257 39.9788383,39.2105198 40.5031046,39.2105198 C41.1209899,39.2105198 41.467375,39.2573286 41.5422701,39.3509476 C41.5609939,39.3696714 41.5703557,39.4071184 41.5703557,39.4632898 C41.5703557,39.6130802 41.4299293,39.6879742 41.1490724,39.6879742 C40.9805582,39.6879742 40.8401318,39.6786125 40.727789,39.6598887 C39.6043612,39.6224411 38.9022294,39.6037176 38.6213724,39.6037176 C37.9660395,39.6037176 37.1047578,39.6224411 36.0375013,39.6598887 C35.513235,39.6786125 35.2885528,39.6879742 35.363448,39.6879742 C35.082591,39.6879742 34.9421647,39.6130802 34.9421647,39.4632898 C34.9421647,39.3322232 35.354082,39.2386056 36.1779291,39.1824342 C37.1328427,39.107539 37.6851865,38.9577509 37.8349769,38.7330653 C37.9285958,38.583275 37.9754046,37.9092284 37.9754046,36.7109054 L37.9754046,25.1677422 C37.9754046,23.9881429 37.9566811,23.2766493 37.9192335,23.03324 C37.8068907,22.2093929 37.4792292,21.6102404 36.9362391,21.2357644 C36.5243155,20.9549075 35.7566514,20.7957576 34.6332236,20.75831 C34.3336428,20.7395862 34.1838547,20.6553304 34.1838547,20.50554 C34.1838547,20.3370258 34.3149193,20.25277 34.5770524,20.25277 C34.6893952,20.25277 35.0919508,20.2714935 35.7847313,20.3089411 C36.1217597,20.3276649 36.6272946,20.3370267 37.3013513,20.3370267 C38.6869123,20.3370267 39.8103233,20.3183031 40.6716179,20.2808556 L50.5296478,32.947441 L50.5296478,21.8255611 C50.5296478,21.37619 50.4547538,21.0906563 50.3049634,20.9689517 C50.155173,20.847247 49.8368732,20.7770338 49.3500545,20.75831 L48.1423756,20.7021389 C47.9176901,20.6834151 47.805349,20.6178828 47.805349,20.50554 C47.805349,20.3557496 47.9738606,20.2808556 48.310889,20.2808556 L48.9287712,20.2808556 C49.041114,20.2808556 49.2283491,20.2714938 49.4904823,20.25277 L50.13645,20.25277 C52.0275536,20.25277 53.132241,20.2621318 53.4505456,20.2808556 C53.7688501,20.2995793 53.928,20.3838352 53.928,20.5336255 Z" id="A&amp;N" fill="#000000"></path>
    </g>
</svg>