<?xml version="1.0" encoding="UTF-8"?>
<svg width="110px" height="37px" viewBox="0 0 110 37" version="1.1" xmlns="http://www.w3.org/2000/svg" xmlns:xlink="http://www.w3.org/1999/xlink">
    <!-- Generator: Sketch 52.3 (67297) - http://www.bohemiancoding.com/sketch -->
    <title>wedding-logo-light</title>
    <desc>Created with Sketch.</desc>
    <g id="wedding-logo-light" stroke="none" stroke-width="1" fill="none" fill-rule="evenodd">
        <path d="M33,15.2642559 C33,15.4478451 32.9020904,15.5549373 32.7062682,15.5855355 C32.5104461,15.6161337 31.8100157,15.6620303 30.6049563,15.7232267 C29.6710352,15.7538249 29.0685145,15.860917 28.7973761,16.0445063 C28.5262377,16.2280955 28.3304185,16.7023606 28.2099125,17.4673157 C27.5170033,21.2920914 26.2065208,24.734338 24.2784257,27.7941586 C24.8809554,28.7733011 25.3177829,29.5382448 25.5889213,30.0890125 C26.311957,31.5577264 27.0123873,32.4756588 27.6902332,32.8428373 C28.3680792,33.2100157 29.7312823,33.4394988 31.7798834,33.5312935 C32.4125396,33.5618917 32.728863,33.7301793 32.728863,34.0361613 C32.728863,34.280947 32.5179807,34.403338 32.0962099,34.403338 C31.3430477,34.403338 29.9572501,34.3574413 27.9387755,34.2656467 C27.2458663,34.2350485 26.7789128,34.2197497 26.5379009,34.2197497 C25.5437268,34.2197497 24.4591895,34.2809451 23.2842566,34.403338 C23.1637506,34.0667577 22.651608,33.0876298 21.7478134,31.4659249 L21.5218659,31.0987483 C19.1117469,33.6995958 15.9635763,35 12.0772595,35 C9.0947373,35 6.6695915,34.1891597 4.80174927,32.5674548 C2.93390708,30.9457499 2,28.8345054 2,26.2336579 C2,21.8887126 4.65109108,18.461765 9.9533528,15.9527121 C9.8930998,15.8609175 9.6972806,15.6467333 9.3658892,15.310153 C7.8294384,13.6884481 6.8729368,12.548682 6.4963557,11.8908206 C6.1197746,11.2329592 5.93148688,10.3685728 5.93148688,9.2976356 C5.93148688,7.125163 6.6319172,5.3657925 8.0327988,4.0194715 C9.4336805,2.67315043 11.2487741,2 13.4781341,2 C15.6171147,2 17.3418302,2.55840888 18.6523324,3.6752434 C19.9628345,4.7920779 20.6180758,6.2531203 20.6180758,8.0584145 C20.6180758,10.965244 18.5243164,13.2753739 14.3367347,14.9888734 C14.5174936,15.2030609 15.2706445,16.0903955 16.5962099,17.650904 C19.2473408,20.7413228 21.5821085,23.7704998 23.6005831,26.7385257 C25.7395637,23.2503303 26.8090379,20.0069691 26.8090379,17.0083449 C26.8090379,16.3351844 26.6734707,15.9450631 26.4023324,15.8379694 C26.131194,15.7308757 25.1671609,15.6773296 23.5102041,15.6773296 C22.6064095,15.6773296 22.154519,15.5243409 22.154519,15.2183588 C22.154519,14.9735732 22.4105902,14.8511822 22.9227405,14.8511822 L30.2434402,14.8511822 C31.6292586,14.8511822 32.3824095,14.8664811 32.5029155,14.8970793 C32.8343068,14.9888739 33,15.1112649 33,15.2642559 Z M17,8.9527559 C17,7.1889676 16.6370407,5.755911 15.9111111,4.6535433 C15.1851816,3.5511756 14.2444502,3 13.0888889,3 C11.9036978,3 10.9259298,3.4173187 10.1555556,4.2519685 C9.3851813,5.0866183 9,6.133852 9,7.3937008 C9,9.7244211 10.599984,12.2598288 13.8,15 C15.933344,13.7716474 17,11.7559195 17,8.9527559 Z M21,30.7289973 C19.1114457,27.4733351 15.5046706,22.8970485 10.1795666,17 C8.6625311,18.1364104 7.5866905,19.303517 6.9520124,20.501355 C6.3173343,21.699193 6,23.1427196 6,24.8319783 C6,27.4426508 6.7352868,29.6232975 8.2058824,31.3739837 C9.6764779,33.12467 11.5108249,34 13.7089783,34 C16.4644101,34 18.8947263,32.9096767 21,30.7289973 Z" id="&amp;" fill="#BDBDBD" fill-rule="nonzero"></path>
        <path d="M49.4310051,14.667129 C49.4310051,14.7669908 49.3458271,14.8169209 49.1754685,14.8169209 C49.0618961,14.8169209 48.9596825,14.8113731 48.8688245,14.8002774 L46.7052811,14.7669903 L44.5417376,14.8002774 C44.462237,14.8113731 44.3770589,14.8169209 44.286201,14.8169209 C44.0590562,14.8169209 43.9454855,14.761443 43.9454855,14.6504854 C43.9454855,14.5284321 44.098806,14.4674064 44.4054514,14.4674064 C45.4048886,14.4563106 45.9045997,14.3564503 45.9045997,14.1678225 C45.9045997,14.1567267 45.8932426,14.1123444 45.8705281,14.0346741 L45.7342419,13.5852982 L45.649063,13.3522885 C45.5468479,13.0083201 45.2969923,12.2482722 44.8994889,11.0721221 L41.253833,11.0721221 C40.5723986,12.847443 40.2316865,13.8682372 40.2316865,14.1345354 C40.2316865,14.289876 40.299829,14.3841885 40.4361158,14.4174757 C40.4701876,14.4285715 40.7541143,14.4507627 41.2879046,14.4840499 C41.6172646,14.4951457 41.7819421,14.5506236 41.7819421,14.6504854 C41.7819421,14.761443 41.6343002,14.8169209 41.3390119,14.8169209 C40.8165789,14.8169209 40.2089756,14.7947298 39.516184,14.7503467 C39.3458254,14.739251 39.1697908,14.7337032 38.988075,14.7337032 C38.8063591,14.7337032 38.6303245,14.7447988 38.4599659,14.7669903 C38.369108,14.778086 38.2952871,14.7836338 38.2385009,14.7836338 C38.0794995,14.7836338 38,14.7337037 38,14.6338419 C38,14.5339801 38.1788739,14.4785021 38.5366269,14.4674064 C38.89438,14.4563106 39.1527533,14.4036066 39.3117547,14.3092926 C39.470756,14.2149787 39.5956838,14.0346754 39.6865417,13.7683773 C41.1516257,9.6851391 42.3441181,6.4063924 43.2640545,3.9320388 C43.286769,3.7988898 43.3321973,3.6490993 43.4003407,3.482663 L43.4855196,3.1830791 C43.5195913,3.0610257 43.5650196,3 43.6218058,3 C43.6558775,3 43.6842702,3.0332868 43.7069847,3.0998613 C43.8546288,3.5325958 44.1896624,4.4368863 44.7120954,5.8127601 C45.120956,6.8890484 46.1374138,9.5908244 47.7614991,13.9181692 C47.8523571,14.1622758 47.968767,14.3176141 48.1107325,14.3841886 C48.252698,14.4507632 48.5451426,14.4895977 48.988075,14.5006935 C49.2833632,14.5117892 49.4310051,14.5672672 49.4310051,14.667129 Z M44.7972743,10.6893204 C44.6155584,10.1900114 44.3145961,9.36339 43.8943782,8.2094313 L43.076661,5.9292649 C42.5996569,7.1497981 42.0261249,8.7364674 41.3560477,10.6893204 L44.7972743,10.6893204 Z M59.6013629,3.3828017 C59.6013629,3.4937592 59.4593995,3.5436894 59.1754685,3.5325936 L58.8006814,3.5159501 L58.4940375,3.5159501 C58.3123216,3.5159501 58.2044295,3.5464629 58.1703578,3.6074896 C58.136286,3.6685163 58.1192504,3.8543674 58.1192504,4.1650485 L58.1192504,13.7517337 C58.1192504,14.3398088 58.1135719,14.683772 58.1022147,14.7836338 C58.0908574,14.8834956 58.0567862,14.9334258 58,14.9334258 C57.9318566,14.9334258 57.8523571,14.8724001 57.7614991,14.7503467 L55.5809199,11.6380028 C54.3202663,9.8293946 52.7870618,7.5714421 50.9812606,4.8640777 L50.9982964,14.1511789 C51.0096537,14.2954237 51.0948317,14.3869624 51.253833,14.4257975 C51.4128344,14.4646326 51.7932963,14.4895977 52.39523,14.5006935 C52.5428741,14.5006935 52.6166951,14.5450758 52.6166951,14.6338419 C52.6166951,14.7447994 52.4690532,14.8002774 52.1737649,14.8002774 C52.0715497,14.8002774 51.7478733,14.783634 51.2027257,14.7503467 C51.0210099,14.739251 50.8449753,14.7337032 50.6746167,14.7337032 C50.6859739,14.7337032 50.5865996,14.7447988 50.3764906,14.7669903 C50.1663817,14.7891818 49.8455445,14.8002774 49.4139693,14.8002774 L49.2436116,14.8002774 C48.9823951,14.8002774 48.8517888,14.7503472 48.8517888,14.6504854 C48.8517888,14.5506236 48.9653595,14.5006935 49.1925043,14.5006935 C49.8625814,14.4895977 50.2515611,14.4479893 50.3594549,14.3758669 C50.4673486,14.3037444 50.5212947,14.0679632 50.5212947,13.668516 L50.5212947,5.4632455 C50.5212947,4.5422978 50.3282245,3.9653271 49.9420784,3.7323162 C49.7603625,3.6213587 49.436686,3.5658807 48.9710392,3.5658807 C48.6757509,3.5658807 48.528109,3.5104028 48.528109,3.3994452 C48.528109,3.2995834 48.6132871,3.2496533 48.7836457,3.2496533 C49.0107905,3.2496533 49.3003957,3.2552011 49.6524702,3.2662968 C50.0045446,3.2773926 50.1919363,3.2829404 50.2146508,3.2829404 C50.2487225,3.2829404 50.4077215,3.2773926 50.6916525,3.2662968 C51.0664414,3.2662968 51.4298676,3.260749 51.7819421,3.2496533 L57.6592845,11.7877947 L57.6592845,4.3814147 C57.6592845,4.0374463 57.653606,3.829404 57.6422487,3.7572816 C57.6308915,3.6851591 57.5854632,3.6296812 57.5059625,3.590846 C57.4264618,3.5520109 57.1538922,3.5325936 56.6882453,3.5325936 C56.2793847,3.5325936 56.0749574,3.4826635 56.0749574,3.3828017 C56.0749574,3.2718441 56.2112422,3.2163662 56.483816,3.2163662 L57.5570698,3.2163662 C57.7387857,3.2274619 57.8466779,3.2330097 57.8807496,3.2330097 C57.8921068,3.2330097 57.9943204,3.2274619 58.1873935,3.2163662 L59.2265758,3.2163662 C59.4764351,3.2163662 59.6013629,3.2718441 59.6013629,3.3828017 Z M71.3219761,9.0249653 C71.3219761,10.9778184 70.6235164,12.4979141 69.2265758,13.5852982 C68.2044242,14.3841926 66.8358973,14.7836338 65.120954,14.7836338 C65.075525,14.7836338 64.8739371,14.778086 64.516184,14.7669903 C64.1584309,14.7558945 63.638845,14.7503467 62.9574106,14.7503467 L62.1056218,14.7503467 L60.7597956,14.7669903 C60.6802949,14.778086 60.5951169,14.7836338 60.5042589,14.7836338 C60.2884714,14.7836338 60.1805792,14.7281559 60.1805792,14.6171983 C60.1805792,14.5173365 60.3622923,14.4674064 60.725724,14.4674064 C61.1913709,14.4674064 61.4809761,14.3841895 61.5945486,14.2177531 C61.6399775,14.1400828 61.6626917,13.9292666 61.6626917,13.5852982 L61.6626917,4.6144244 C61.6626917,4.0707324 61.6201026,3.7545081 61.5349233,3.665742 C61.449744,3.576976 61.1572995,3.5325936 60.6575809,3.5325936 C60.3963644,3.5325936 60.2657581,3.4715679 60.2657581,3.3495146 C60.2657581,3.2607485 60.3622932,3.2163662 60.5553663,3.2163662 C60.544009,3.2163662 60.6689368,3.221914 60.9301533,3.2330097 C61.1913698,3.2441055 61.4469039,3.2496533 61.6967632,3.2496533 L63.5195911,3.2496533 C65.5638944,3.2496533 67.0119208,3.3883481 67.8637138,3.665742 C68.8972227,3.9986147 69.7319673,4.6560284 70.3679727,5.6380028 C71.0039782,6.6199772 71.3219761,7.7489534 71.3219761,9.0249653 Z M69.4139693,8.9583911 C69.4139693,7.1164956 69.0448646,5.7656076 68.306644,4.9056865 C67.5684233,4.0457655 66.4156807,3.6158114 64.8483816,3.6158114 C64.0874465,3.6158114 63.6274852,3.6934805 63.4684838,3.8488211 C63.4003404,3.9264914 63.3662692,4.1927855 63.3662692,4.6477115 L63.3662692,13.5020804 C63.3662692,13.8127616 63.374787,14.0013866 63.3918228,14.0679612 C63.4088587,14.1345357 63.4571262,14.1900136 63.5366269,14.2343967 C63.8092007,14.3675457 64.3827327,14.4341193 65.2572402,14.4341193 C66.4838221,14.4341193 67.4718872,14.0124869 68.2214651,13.1692094 C69.0164719,12.281549 69.4139693,10.8779569 69.4139693,8.9583911 Z M82.1567291,14.2843273 C82.1567291,14.7503491 81.7592317,14.9833564 80.9642249,14.9833564 C80.0783601,14.9833564 79.3855789,14.6227498 78.8858603,13.9015257 C78.6700727,13.5908445 78.5309486,13.2912636 78.4684838,13.0027739 C78.406019,12.7142843 78.3123232,11.9819754 78.1873935,10.8058252 C78.1192501,10.0956969 77.8864302,9.5936214 77.4889267,9.2995839 C77.0914233,9.0055464 76.4440704,8.8474342 75.5468484,8.8252427 L75.5468484,14.0679612 C75.5468484,14.2898763 75.7285615,14.4285712 76.0919932,14.4840499 C76.1942083,14.4951457 76.455421,14.5062413 76.8756388,14.517337 C77.023283,14.517337 77.0971039,14.5617194 77.0971039,14.6504854 C77.0971039,14.7503472 77.0005688,14.8002774 76.8074957,14.8002774 L76.6030664,14.8002774 C76.5008513,14.7891816 76.0068187,14.7836338 75.120954,14.7836338 C74.9505954,14.7836338 74.6609901,14.7891816 74.2521295,14.8002774 L72.8040886,14.8002774 C72.5542293,14.8002774 72.4293015,14.7503472 72.4293015,14.6504854 C72.4293015,14.5728151 72.593979,14.5284328 72.923339,14.517337 C73.4571293,14.5062413 73.7467346,14.4396677 73.7921635,14.3176144 C73.8375925,14.2621356 73.8603066,14.0457717 73.8603066,13.668516 L73.8603066,4.481276 C73.8603066,4.0374458 73.8120391,3.7711516 73.7155026,3.6823856 C73.618966,3.5936195 73.3265215,3.5436894 72.8381601,3.5325936 C72.5542291,3.5325936 72.4122658,3.4826635 72.4122658,3.3828017 C72.4122658,3.2718441 72.5031223,3.2163662 72.6848382,3.2163662 C72.7189099,3.2163662 72.7700167,3.221914 72.8381601,3.2330097 L75.1039182,3.2829404 C75.331063,3.2829404 75.649061,3.2773926 76.0579216,3.2662968 C76.5122112,3.2441053 76.8302092,3.2330097 77.011925,3.2330097 C78.0681484,3.2330097 78.9057323,3.4632432 79.5247019,3.9237171 C80.1436715,4.3841909 80.4531516,5.0083178 80.4531516,5.7961165 C80.4531516,6.5728194 80.1351537,7.2135897 79.4991482,7.7184466 C78.8631428,8.2233035 78.0000055,8.5201105 76.9097104,8.6088766 C76.8074952,8.6199723 76.7507099,8.6366157 76.7393526,8.6588072 C76.7393526,8.7031902 76.796138,8.7253814 76.9097104,8.7253814 C78.1022206,8.925105 78.9227689,9.3328679 79.3713799,9.9486824 C79.8199909,10.5644968 80.118114,11.6768297 80.2657581,13.2857143 C80.356616,14.1955663 80.674614,14.6504854 81.2197615,14.6504854 C81.3901201,14.6504854 81.4752981,14.6171987 81.4752981,14.5506241 C81.4752981,14.5395284 81.4696196,14.5284328 81.4582624,14.517337 C81.4014761,14.3952837 81.3730835,14.2954234 81.3730835,14.2177531 C81.3730835,13.9847422 81.4980112,13.8682386 81.7478705,13.8682386 C82.0204443,13.8682386 82.1567291,14.0069334 82.1567291,14.2843273 Z M78.6303237,5.9459085 C78.6303237,4.3592154 77.9261853,3.5658807 76.5178876,3.5658807 C76.1430986,3.5658807 75.8875646,3.6158109 75.7512777,3.7156727 C75.6149908,3.8155345 75.5468484,3.9930639 75.5468484,4.2482663 L75.5468484,8.4757282 C76.6371434,8.4868239 77.4236205,8.2926511 77.9063032,7.8932039 C78.3889859,7.4937567 78.6303237,6.8446647 78.6303237,5.9459085 Z M91.6286201,12.0873786 C91.6286201,12.1317617 91.617263,12.4036036 91.5945486,12.9029126 C91.5718341,13.4022216 91.560477,13.879332 91.560477,14.334258 L91.560477,14.8834951 C90.4474675,14.8280164 88.2441959,14.8002774 84.9505963,14.8002774 C84.5530928,14.8002774 84.1612739,14.8058252 83.7751278,14.8169209 L82.8211244,14.8169209 C82.6053368,14.8169209 82.4974446,14.7669908 82.4974446,14.667129 C82.4974446,14.6005545 82.5315158,14.5617199 82.5996593,14.5506241 C82.633731,14.5506241 82.8495153,14.5339807 83.2470187,14.5006935 C83.542307,14.478502 83.7211808,14.4174762 83.7836457,14.3176144 C83.8461105,14.2177526 83.8773424,13.9570063 83.8773424,13.5353675 L83.8773424,4.1816921 C83.8773424,3.8599152 83.8290749,3.6685163 83.7325383,3.6074896 C83.6360018,3.5464629 83.3265216,3.5159501 82.8040886,3.5159501 C82.6223727,3.5159501 82.5315162,3.4660199 82.5315162,3.3661581 C82.5315162,3.2662963 82.656444,3.2163662 82.9063032,3.2163662 L85.8194208,3.2330097 C85.9216359,3.2330097 86.5633104,3.2274619 87.7444634,3.2163662 L90.1294719,3.2163662 C90.4701891,3.2163662 90.7825085,3.194175 91.0664395,3.149792 C91.089154,3.6269095 91.1402608,4.287097 91.2197615,5.1303745 L91.2879046,5.8460472 C91.2992618,5.9015259 91.3049404,5.9736473 91.3049404,6.0624133 C91.3049404,6.1733709 91.2538336,6.2288488 91.1516184,6.2288488 C91.0266888,6.2288488 90.9358322,6.090154 90.879046,5.8127601 C90.6632584,4.814142 90.3111893,4.1816934 89.8228279,3.9153953 C89.4593963,3.7156717 88.5054024,3.6158114 86.9608177,3.6158114 L85.5638842,3.6158114 L85.5638842,8.4923717 L85.9727428,8.4923717 C87.2447537,8.4923717 88.0198737,8.3980592 88.2981261,8.2094313 C88.5763784,8.0208035 88.7666094,7.4715718 88.8688245,6.5617198 C88.891539,6.328709 88.9540029,6.2122053 89.0562181,6.2122053 C89.1811477,6.2122053 89.2436116,6.3120656 89.2436116,6.5117892 C89.2436116,6.7115128 89.2322545,7.0055459 89.20954,7.3938974 C89.1868256,7.7822488 89.1754685,8.0762819 89.1754685,8.2760055 C89.1754685,9.4632514 89.1981826,10.2787773 89.2436116,10.7226075 C89.2549688,10.833565 89.2606474,10.9278776 89.2606474,11.0055479 C89.2606474,11.1497927 89.1981835,11.221914 89.0732538,11.221914 C88.9937532,11.221914 88.9398071,11.1747578 88.911414,11.0804438 C88.8830209,10.9861299 88.8347533,10.6782273 88.7666099,10.1567268 C88.675752,9.5020772 88.3975037,9.0970882 87.9318569,8.9417476 C87.7274266,8.875173 87.1936443,8.8418863 86.330494,8.8418863 L85.5638842,8.8418863 L85.5638842,14.4341193 C88.062477,14.4341193 89.527539,14.3841891 89.9591141,14.2843273 C90.708692,14.117891 91.1345821,13.4077733 91.2367973,12.1539528 C91.2595118,11.8765589 91.3333327,11.7378641 91.4582624,11.7378641 C91.5718348,11.7378641 91.6286201,11.8543678 91.6286201,12.0873786 Z M108,3.3495146 C108,3.4493764 107.80693,3.5048543 107.420784,3.5159501 C106.989209,3.5270458 106.702443,3.6657407 106.560477,3.9320388 C106.418511,4.198337 106.199888,4.764212 105.9046,5.629681 C105.393524,7.1497996 104.939241,8.4424357 104.541738,9.5076283 C103.860303,11.3273323 103.241343,13.0859832 102.684838,14.7836338 C102.639409,14.9278787 102.582624,15 102.51448,15 C102.457694,15 102.403748,14.9445221 102.352641,14.8335645 C102.301533,14.7226069 102.151052,14.3342613 101.901193,13.668516 C101.58319,12.803047 101.236799,11.9320432 100.86201,11.0554785 C100.566722,10.3675416 100.277117,9.6574239 99.993186,8.925104 C99.198179,10.8002868 98.408863,12.7586583 97.625213,14.8002774 C97.579784,14.9334265 97.522999,15 97.454855,15 C97.398069,15 97.329927,14.9056875 97.250426,14.7170596 C96.898351,13.8959737 95.5922884,10.4951755 93.3321976,4.5145631 C93.1731963,4.0929244 93.053947,3.8294041 92.9744463,3.7239945 C92.8949457,3.6185848 92.6961969,3.5603329 92.3781942,3.5492372 C91.8330467,3.5270457 91.560477,3.4493765 91.560477,3.3162275 C91.560477,3.2163657 91.6513336,3.1664355 91.8330494,3.1664355 C91.9125501,3.1664355 91.9806925,3.1719833 92.0374787,3.1830791 C92.6394124,3.2163663 93.2867654,3.2330097 93.9795571,3.2330097 C94.115844,3.2330097 94.3515032,3.224688 94.6865417,3.2080444 C95.0215803,3.1914007 95.4559882,3.1830791 95.9897785,3.1830791 L96.177172,3.1830791 C96.370245,3.1830791 96.46678,3.2330092 96.46678,3.332871 C96.46678,3.4549243 96.290746,3.5214979 95.9386712,3.5325936 C95.2345223,3.5547851 94.8824532,3.6435498 94.8824532,3.7988904 C94.8824532,4.1095716 95.9273036,6.9999726 98.017036,12.4701803 C98.777971,10.5949976 99.345824,9.2135967 99.720613,8.3259362 L98.034072,4.0651872 C97.943214,3.8321764 97.838161,3.6823859 97.71891,3.6158114 C97.599659,3.5492368 97.381035,3.5104023 97.063032,3.4993065 C96.74503,3.4882108 96.586031,3.4382806 96.586031,3.3495146 C96.586031,3.2274612 96.70528,3.1664355 96.943782,3.1664355 C97.125498,3.1664355 97.346961,3.1775311 97.608177,3.1997226 C97.869394,3.2219141 98.323676,3.2330097 98.971039,3.2330097 L100.265758,3.2330097 L102.139693,3.2662968 C102.559911,3.2662968 103.065301,3.2441056 103.655877,3.1997226 C103.724021,3.1886269 103.80352,3.1830791 103.894378,3.1830791 C104.166952,3.1830791 104.303237,3.238557 104.303237,3.3495146 C104.303237,3.4493764 104.206702,3.4993065 104.013629,3.4993065 L103.72402,3.4993065 C103.212945,3.4993065 102.826804,3.5658801 102.565588,3.6990291 C102.452015,3.7545079 102.24191,4.1539491 101.935264,4.8973648 C101.798977,5.2080459 101.571836,5.7350864 101.253833,6.4785021 L100.947189,7.2274619 C101.02669,7.449377 101.276545,8.0651822 101.696763,9.074896 C102.241911,10.3620037 102.690515,11.4660148 103.042589,12.3869626 C103.678595,10.5894501 104.428161,8.4646447 105.291312,6.0124827 C105.745601,4.7142792 105.972743,3.9930659 105.972743,3.8488211 C105.972743,3.6380017 105.773994,3.5325936 105.376491,3.5325936 C104.819986,3.5325936 104.541738,3.4715679 104.541738,3.3495146 C104.541738,3.238557 104.655308,3.1830791 104.882453,3.1830791 C105.075526,3.1830791 105.228847,3.1886269 105.342419,3.1997226 C105.592278,3.2219141 105.81942,3.2330097 106.02385,3.2330097 L107.386712,3.2163662 C107.727429,3.2163662 107.914821,3.2302356 107.948893,3.257975 C107.982964,3.2857144 108,3.3162273 108,3.3495146 Z M101.850085,3.8488211 C101.850085,3.6490975 101.498016,3.5492372 100.793867,3.5492372 L100.589438,3.5492372 L100.29983,3.5658807 C99.890969,3.5880722 99.686542,3.6601936 99.686542,3.7822469 C99.686542,3.8044384 100.021575,4.7642069 100.691652,6.6615811 C100.952869,6.1067933 101.25951,5.3744844 101.611584,4.4646325 C101.657013,4.3425791 101.725156,4.1816931 101.816014,3.9819695 C101.838728,3.8932034 101.850085,3.8488211 101.850085,3.8488211 Z" id="Andrew" fill="#FFFFFF" fill-rule="nonzero"></path>
        <path d="M49.0296232,23.334728 C49.0296232,23.4463046 48.8882192,23.4965133 48.605407,23.4853556 L48.2320966,23.4686192 L47.9266609,23.4686192 C47.7456611,23.4686192 47.638194,23.4993023 47.6042565,23.5606695 C47.5703191,23.6220366 47.5533506,23.8089245 47.5533506,24.1213389 L47.5533506,33.7615063 C47.5533506,34.3528621 47.5476944,34.6987443 47.5363819,34.7991632 C47.5250694,34.8995821 47.4911325,34.9497908 47.43457,34.9497908 C47.3666951,34.9497908 47.2875088,34.8884246 47.1970089,34.7656904 L45.0250216,31.6359833 C43.7693351,29.8172852 42.2421718,27.5467361 40.4434858,24.8242678 L40.4604544,34.1631799 C40.4717669,34.3082295 40.5566093,34.4002787 40.7149842,34.4393305 C40.8733591,34.4783823 41.2523218,34.5034867 41.8518838,34.5146444 C41.9989462,34.5146444 42.0724763,34.5592743 42.0724763,34.6485356 C42.0724763,34.7601121 41.9254161,34.8158996 41.6312913,34.8158996 C41.5294789,34.8158996 41.2070778,34.7991633 40.6640782,34.7656904 C40.4830784,34.7545327 40.3077374,34.748954 40.13805,34.748954 C40.1493625,34.748954 40.0503797,34.7601115 39.8410986,34.7824268 C39.6318176,34.8047421 39.3122445,34.8158996 38.8823699,34.8158996 L38.7126833,34.8158996 C38.4524961,34.8158996 38.3224044,34.7656909 38.3224044,34.665272 C38.3224044,34.5648531 38.4355276,34.5146444 38.6617774,34.5146444 C39.3292143,34.5034867 39.7166613,34.4616461 39.82413,34.3891213 C39.9315987,34.3165966 39.9853322,34.0794999 39.9853322,33.6778243 L39.9853322,25.4267782 C39.9853322,24.5006927 39.7930227,23.9205033 39.408398,23.6861925 C39.2273982,23.5746159 38.904997,23.5188285 38.4411849,23.5188285 C38.1470602,23.5188285 38,23.463041 38,23.3514644 C38,23.2510455 38.0848424,23.2008368 38.2545298,23.2008368 C38.4807796,23.2008368 38.7692438,23.2064156 39.119931,23.2175732 C39.4706182,23.2287309 39.6572715,23.2343096 39.6798965,23.2343096 C39.7138339,23.2343096 39.8722064,23.2287309 40.1550187,23.2175732 C40.5283309,23.2175732 40.8903252,23.2119945 41.2410124,23.2008368 L47.095197,31.7866109 L47.095197,24.3389121 C47.095197,23.9930248 47.0895408,23.7838218 47.0782284,23.7112971 C47.0669159,23.6387723 47.0216666,23.5829849 46.9424791,23.5439331 C46.8632917,23.5048813 46.591796,23.4853556 46.1279839,23.4853556 C45.7207342,23.4853556 45.5171125,23.4351469 45.5171125,23.334728 C45.5171125,23.2231515 45.6528603,23.167364 45.9243601,23.167364 L46.9933851,23.167364 C47.174385,23.1785217 47.281852,23.1841004 47.3157895,23.1841004 C47.327102,23.1841004 47.4289129,23.1785217 47.6212252,23.167364 L48.6563129,23.167364 C48.9051877,23.167364 49.0296232,23.2231515 49.0296232,23.334728 Z M54.1541559,34.665272 C54.1541559,34.7545332 54.086282,34.7991632 53.9505321,34.7991632 L53.7808456,34.7991632 C53.7129706,34.7656902 52.9437328,34.748954 51.473109,34.748954 C51.1902967,34.748954 50.9074887,34.7601115 50.6246764,34.7824268 C50.4776141,34.7935844 50.2513676,34.7991632 49.9459304,34.7991632 C49.798868,34.7991632 49.7253379,34.7489545 49.7253379,34.6485356 C49.7253379,34.5592743 49.8723981,34.5090656 50.1665229,34.4979079 C50.6190225,34.4867503 50.884862,34.4337522 50.9640495,34.3389121 C51.0432369,34.2440721 51.08283,33.9232942 51.08283,33.376569 L51.08283,24.5732218 C51.08283,24.0264966 51.0545492,23.7196656 50.9979868,23.6527197 C50.9301118,23.5411431 50.619023,23.4741982 50.064711,23.4518828 C49.8497736,23.4407252 49.7423066,23.3960952 49.7423066,23.3179916 C49.7423066,23.2175727 49.8101805,23.167364 49.9459304,23.167364 L52.2366983,23.2008368 C52.4063857,23.2008368 52.734443,23.1952581 53.2208801,23.1841004 L53.8656888,23.167364 C54.0466887,23.167364 54.1371872,23.2175727 54.1371872,23.3179916 C54.1371872,23.4072529 53.8883162,23.4630403 53.3905666,23.4853556 C53.1077543,23.4965133 52.9352414,23.546722 52.8730227,23.6359833 C52.810804,23.7252445 52.7796951,23.9595518 52.7796951,24.3389121 L52.7796951,33.2761506 C52.7796951,33.9121371 52.8079759,34.2580192 52.8645384,34.3138075 C52.9889758,34.4365418 53.3566262,34.5090654 53.9675007,34.5313808 C54.0919381,34.5313808 54.1541559,34.5760107 54.1541559,34.665272 Z M64.9122807,31.0669456 C64.9122807,31.0446303 64.9009684,31.1952564 64.8783434,31.5188285 C64.8330934,32.1659726 64.8104688,32.790792 64.8104688,33.3933054 C64.8104688,33.4602514 64.8217811,33.5969306 64.8444061,33.8033473 C64.8670311,34.0097639 64.8783434,34.2580181 64.8783434,34.5481172 L64.8783434,34.6987448 C64.8783434,34.8437943 64.8330941,34.916318 64.7425942,34.916318 C64.6520943,34.916318 64.572908,34.8326368 64.5050331,34.665272 C64.3466582,34.2970693 64.1882857,34.0571833 64.0299108,33.9456067 C63.2154115,34.6485391 62.2368958,35 61.0943342,35 C59.4313981,35 58.054123,34.4281787 56.9624676,33.2845188 C55.8708123,32.140859 55.3249928,30.6987535 55.3249928,28.958159 C55.3249928,27.2064069 55.825563,25.7754588 56.8267184,24.665272 C57.8278739,23.5550851 59.1203065,23 60.7040552,23 C61.2809922,23 61.7419693,23.0474193 62.0870003,23.1422594 C62.4320313,23.2370995 62.8590714,23.4295662 63.3681334,23.7196653 C63.6170082,23.8647148 63.8036615,23.9372385 63.9280989,23.9372385 C64.0299114,23.9372385 64.1260661,23.8479786 64.216566,23.6694561 C64.3636284,23.3570417 64.4824078,23.2008368 64.5729077,23.2008368 C64.6634076,23.2008368 64.7086569,23.2454668 64.7086569,23.334728 C64.7086569,23.3793587 64.6973446,23.4518823 64.6747196,23.5523013 C64.5502822,24.0878688 64.4880644,25.0920428 64.4880644,26.5648536 C64.4880644,26.776849 64.4710959,26.8995814 64.4371585,26.9330544 C64.403221,26.9665274 64.3579717,26.9832636 64.3014093,26.9832636 C64.1882844,26.9832636 64.1147543,26.8772674 64.0808168,26.665272 C63.9337544,25.7726594 63.7244765,25.1087888 63.4529767,24.6736402 C62.8986647,23.7810276 62.0276159,23.334728 60.8398044,23.334728 C59.9234927,23.334728 59.1995041,23.6359803 58.6678171,24.2384937 C57.7062554,25.3207864 57.2254817,26.90515 57.2254817,28.9916318 C57.2254817,30.8549605 57.621413,32.2998554 58.4132873,33.3263598 C59.1033492,34.2189724 60.0196472,34.665272 61.1622088,34.665272 C61.7504583,34.665272 62.2877936,34.523014 62.7742307,34.2384937 C63.2606678,33.9539735 63.6339743,33.5662507 63.8941616,33.0753138 C64.1882864,32.5062733 64.3975643,31.8870326 64.5220017,31.2175732 C64.5672517,30.9497895 64.6407818,30.8158996 64.7425942,30.8158996 C64.8557191,30.8158996 64.9122807,30.8995808 64.9122807,31.0669456 Z M77.1806155,29.0585774 C77.1806155,30.7210683 76.6743891,32.126912 75.6619212,33.2761506 C74.6494533,34.4253893 73.4079261,35 71.9373023,35 C70.3761786,35 69.0639493,34.4170212 68.0005752,33.251046 C66.9372011,32.0850709 66.405522,30.6485441 66.405522,28.9414226 C66.405522,27.2008281 66.9174045,25.7754588 67.9411849,24.665272 C68.9649653,23.5550851 70.2743665,23 71.8694277,23 C73.3739889,23 74.6353127,23.5801895 75.6534369,24.7405858 C76.671561,25.9009821 77.1806155,27.3402982 77.1806155,29.0585774 Z M75.2801265,29.1422594 C75.2801265,27.1004082 74.8559145,25.5104659 74.0074777,24.3723849 C73.4757906,23.6582949 72.7348336,23.3012552 71.7845844,23.3012552 C70.8795852,23.3012552 70.1782213,23.5746137 69.6804717,24.1213389 C68.7641599,25.125528 68.3060109,26.7601003 68.3060109,29.0251046 C68.3060109,30.8214874 68.625584,32.2161736 69.2647397,33.209205 C69.9038954,34.2022365 70.8003969,34.6987448 71.9542709,34.6987448 C73.0289575,34.6987448 73.8377885,34.2301302 74.380788,33.292887 C74.98035,32.2552249 75.2801265,30.8716962 75.2801265,29.1422594 Z M87.3109002,33.4769874 C87.3109002,33.7670865 87.2939317,34.2468586 87.2599942,34.916318 L87.0733391,34.916318 C87.0054641,34.916318 86.8414355,34.9051605 86.5812482,34.8828452 C86.3210609,34.8605299 86.0269406,34.8493724 85.6988783,34.8493724 L78.6399195,34.7991632 C78.4476071,34.7991632 78.3514524,34.7489545 78.3514524,34.6485356 C78.3514524,34.570432 78.5041687,34.5202233 78.809606,34.4979079 C79.2394806,34.4755926 79.4968359,34.4281733 79.5816796,34.3556485 C79.6665233,34.2831238 79.7089445,34.0739208 79.7089445,33.7280335 L79.7089445,24.3221757 C79.7089445,23.9093424 79.6665233,23.6694564 79.5816796,23.6025105 C79.4968359,23.5355645 79.1942313,23.5020921 78.6738568,23.5020921 C78.4589195,23.5020921 78.3514524,23.4407259 78.3514524,23.3179916 C78.3514524,23.2175727 78.4193263,23.167364 78.5550762,23.167364 L78.7077941,23.167364 C79.0811063,23.200837 79.8220633,23.2175732 80.9306874,23.2175732 C81.0324998,23.2175732 81.2304654,23.2092051 81.5245902,23.1924686 C81.8187149,23.1757321 82.0619298,23.167364 82.2542422,23.167364 L82.4408973,23.167364 C82.6445222,23.167364 82.746333,23.2231515 82.746333,23.334728 C82.746333,23.401674 82.7152242,23.4435146 82.6530055,23.460251 C82.5907868,23.4769875 82.3956492,23.4909344 82.067587,23.5020921 C81.7395248,23.5132497 81.5443872,23.5662478 81.4821685,23.6610879 C81.4199498,23.7559279 81.388841,24.0488121 81.388841,24.539749 L81.388841,34.4142259 C81.6942782,34.4253836 82.1184902,34.4309623 82.6614898,34.4309623 C83.9850512,34.4309623 84.9183177,34.3640174 85.4613172,34.2301255 C86.0043168,34.0962336 86.3719672,33.8451901 86.5642796,33.4769874 C86.7565919,33.1087848 86.8697151,32.6122765 86.9036526,31.9874477 C86.9149651,31.8423982 86.982839,31.7698745 87.1072764,31.7698745 C87.2543388,31.7698745 87.3222127,31.8535556 87.3109002,32.0209205 L87.2939316,32.4393305 L87.2939316,32.5899582 C87.305244,32.6680618 87.3109002,32.7461642 87.3109002,32.8242678 L87.3109002,33.4769874 Z M97,32.0878661 C97,32.1324967 96.988688,32.4058552 96.966063,32.9079498 C96.943438,33.4100444 96.932125,33.8898164 96.932125,34.3472803 L96.932125,34.8995816 C95.8235013,34.8437933 93.628911,34.8158996 90.3482888,34.8158996 C89.9523516,34.8158996 89.5620765,34.8214783 89.1774518,34.832636 L88.2272074,34.832636 C88.01227,34.832636 87.904803,34.7824273 87.904803,34.6820084 C87.904803,34.6150624 87.93874,34.5760112 88.0066149,34.5648536 C88.0405524,34.5648536 88.2554865,34.5481173 88.6514236,34.5146444 C88.9455484,34.492329 89.1237175,34.4309628 89.1859362,34.3305439 C89.2481549,34.230125 89.2792637,33.967924 89.2792637,33.5439331 L89.2792637,24.1380753 C89.2792637,23.8145033 89.2311864,23.6220366 89.1350302,23.5606695 C89.038874,23.4993023 88.7306133,23.4686192 88.2102387,23.4686192 C88.0292389,23.4686192 87.9387403,23.4184105 87.9387403,23.3179916 C87.9387403,23.2175727 88.0631758,23.167364 88.3120506,23.167364 L91.21369,23.1841004 C91.3155024,23.1841004 91.9546485,23.1785217 93.1311475,23.167364 L95.5067587,23.167364 C95.8461334,23.167364 96.157222,23.145049 96.440035,23.1004184 C96.462659,23.5801977 96.513565,24.2440683 96.592752,25.0920502 L96.660627,25.8117155 C96.671939,25.8675038 96.677596,25.9400274 96.677596,26.0292887 C96.677596,26.1408653 96.62669,26.1966527 96.524878,26.1966527 C96.40044,26.1966527 96.309942,26.0571841 96.253379,25.7782427 C96.038442,24.7740536 95.6877601,24.1380767 95.201323,23.8702929 C94.8393233,23.6694551 93.8890883,23.5690377 92.3505896,23.5690377 L90.9591602,23.5690377 L90.9591602,28.4728033 L91.3664078,28.4728033 C92.6334068,28.4728033 93.4054727,28.3779647 93.6826287,28.1882845 C93.9597847,27.9986044 94.1492661,27.4463086 94.2510785,26.5313808 C94.2737035,26.29707 94.3359213,26.1799163 94.4377337,26.1799163 C94.5621711,26.1799163 94.6243888,26.2803337 94.6243888,26.4811715 C94.6243888,26.6820094 94.6130765,26.9776828 94.5904515,27.3682008 C94.5678266,27.7587188 94.5565142,28.0543923 94.5565142,28.2552301 C94.5565142,29.4490994 94.5791389,30.2691749 94.6243888,30.7154812 C94.6357013,30.8270577 94.6413575,30.9218964 94.6413575,31 C94.6413575,31.1450495 94.5791397,31.2175732 94.4547023,31.2175732 C94.3755149,31.2175732 94.3217814,31.1701539 94.2935001,31.0753138 C94.2652189,30.9804737 94.2171416,30.6708534 94.1492666,30.1464435 C94.0587667,29.4881418 93.7816148,29.0808934 93.3178027,28.9246862 C93.1141779,28.8577403 92.5824988,28.8242678 91.7227495,28.8242678 L90.9591602,28.8242678 L90.9591602,34.4476987 C93.4479081,34.4476987 94.9071975,34.39749 95.3370722,34.2970711 C96.083697,34.1297063 96.507909,33.4156269 96.609721,32.1548117 C96.632346,31.8758703 96.705876,31.7364017 96.830313,31.7364017 C96.943438,31.7364017 97,31.8535553 97,32.0878661 Z" id="Nicole" fill="#FFFFFF" fill-rule="nonzero"></path>
    </g>
</svg>