<?xml version="1.0" encoding="UTF-8"?>
<svg width="64px" height="38px" viewBox="0 0 64 38" version="1.1" xmlns="http://www.w3.org/2000/svg" xmlns:xlink="http://www.w3.org/1999/xlink">
    <!-- Generator: Sketch 51.2 (57519) - http://www.bohemiancoding.com/sketch -->
    <title>wedding-logo-light</title>
    <desc>Created with Sketch.</desc>
    <defs></defs>
    <g id="wedding-logo-light" stroke="none" stroke-width="1" fill="none" fill-rule="evenodd">
        <path d="M11.764,15.916 C11.764,15.9880004 11.7040006,16.024 11.584,16.024 C11.5039996,16.024 11.4320003,16.02 11.368,16.012 L9.844,15.988 L8.32,16.012 C8.26399972,16.02 8.20400032,16.024 8.14,16.024 C7.9799992,16.024 7.9,15.9840004 7.9,15.904 C7.9,15.8159996 8.00799892,15.772 8.224,15.772 C8.92800352,15.764 9.28,15.6920007 9.28,15.556 C9.28,15.548 9.27200008,15.5160003 9.256,15.46 L9.16,15.136 L9.1,14.968 C9.02799964,14.7199988 8.8520014,14.1720042 8.572,13.324 L6.004,13.324 C5.5239976,14.6040064 5.284,15.339999 5.284,15.532 C5.284,15.6440006 5.33199952,15.7119999 5.428,15.736 C5.45200012,15.744 5.65199812,15.7599999 6.028,15.784 C6.26000116,15.792 6.376,15.8319996 6.376,15.904 C6.376,15.9840004 6.27200104,16.024 6.064,16.024 C5.69599816,16.024 5.26800244,16.0080002 4.78,15.976 C4.6599994,15.968 4.53600064,15.964 4.408,15.964 C4.27999936,15.964 4.1560006,15.9719999 4.036,15.988 C3.97199968,15.996 3.9200002,16 3.88,16 C3.76799944,16 3.712,15.9640004 3.712,15.892 C3.712,15.8199996 3.83799874,15.78 4.09,15.772 C4.34200126,15.764 4.52399944,15.7260003 4.636,15.658 C4.74800056,15.5899997 4.83599968,15.460001 4.9,15.268 C5.93200516,12.3239853 6.77199676,9.96000892 7.42,8.176 C7.43600008,8.07999952 7.46799976,7.9720006 7.516,7.852 L7.576,7.636 C7.60000012,7.54799956 7.6319998,7.504 7.672,7.504 C7.69600012,7.504 7.71599992,7.52799976 7.732,7.576 C7.83600052,7.88800156 8.07199816,8.53999504 8.44,9.532 C8.72800144,10.3080039 9.44399428,12.2559844 10.588,15.376 C10.6520003,15.5520009 10.7339995,15.6639998 10.834,15.712 C10.9340005,15.7600002 11.1399984,15.788 11.452,15.796 C11.660001,15.804 11.764,15.8439996 11.764,15.916 Z M8.5,13.048 C8.37199936,12.6879982 8.16000148,12.0920042 7.864,11.26 L7.288,9.616 C6.95199832,10.4960044 6.54800236,11.639993 6.076,13.048 L8.5,13.048 Z M18.928,7.78 C18.928,7.8600004 18.828001,7.89600004 18.628,7.888 L18.364,7.876 L18.148,7.876 C18.0199994,7.876 17.9440001,7.89799978 17.92,7.942 C17.8959999,7.98600022 17.884,8.11999888 17.884,8.344 L17.884,15.256 C17.884,15.6800021 17.88,15.9279996 17.872,16 C17.864,16.0720004 17.8400002,16.108 17.8,16.108 C17.7519998,16.108 17.6960003,16.0640004 17.632,15.976 L16.096,13.732 C15.2079956,12.4279935 14.1280064,10.8000098 12.856,8.848 L12.868,15.544 C12.876,15.6480005 12.9359994,15.7139999 13.048,15.742 C13.1600006,15.7700001 13.4279979,15.788 13.852,15.796 C13.9560005,15.796 14.008,15.8279997 14.008,15.892 C14.008,15.9720004 13.904001,16.012 13.696,16.012 C13.6239996,16.012 13.3960019,16.0000001 13.012,15.976 C12.8839994,15.968 12.7600006,15.964 12.64,15.964 C12.648,15.964 12.5780007,15.9719999 12.43,15.988 C12.2819993,16.0040001 12.0560015,16.012 11.752,16.012 L11.632,16.012 C11.4479991,16.012 11.356,15.9760004 11.356,15.904 C11.356,15.8319996 11.4359992,15.796 11.596,15.796 C12.0680024,15.788 12.3419996,15.7580003 12.418,15.706 C12.4940004,15.6539997 12.532,15.4840014 12.532,15.196 L12.532,9.28 C12.532,8.61599668 12.3960014,8.20000084 12.124,8.032 C11.9959994,7.9519996 11.7680016,7.912 11.44,7.912 C11.231999,7.912 11.128,7.8720004 11.128,7.792 C11.128,7.71999964 11.1879994,7.684 11.308,7.684 C11.4680008,7.684 11.6719988,7.68799996 11.92,7.696 C12.1680012,7.70400004 12.2999999,7.708 12.316,7.708 C12.3400001,7.708 12.451999,7.70400004 12.652,7.696 C12.9160013,7.696 13.1719988,7.69200004 13.42,7.684 L17.56,13.84 L17.56,8.5 C17.56,8.25199876 17.556,8.10200026 17.548,8.05 C17.54,7.99799974 17.5080003,7.95800014 17.452,7.93 C17.3959997,7.90199986 17.2040016,7.888 16.876,7.888 C16.5879986,7.888 16.444,7.85200036 16.444,7.78 C16.444,7.6999996 16.539999,7.66 16.732,7.66 L17.488,7.66 C17.6160006,7.66800004 17.6919999,7.672 17.716,7.672 C17.724,7.672 17.7959993,7.66800004 17.932,7.66 L18.664,7.66 C18.8400009,7.66 18.928,7.6999996 18.928,7.78 Z M27.184,11.848 C27.184,13.256007 26.6920049,14.3519961 25.708,15.136 C24.9879964,15.7120029 24.024006,16 22.816,16 C22.7839998,16 22.6420013,15.996 22.39,15.988 C22.1379987,15.98 21.7720024,15.976 21.292,15.976 L20.692,15.976 L19.744,15.988 C19.6879997,15.996 19.6280003,16 19.564,16 C19.4119992,16 19.336,15.9600004 19.336,15.88 C19.336,15.8079996 19.4639987,15.772 19.72,15.772 C20.0480016,15.772 20.2519996,15.7120006 20.332,15.592 C20.3640002,15.5359997 20.38,15.3840012 20.38,15.136 L20.38,8.668 C20.38,8.27599804 20.3500003,8.04800032 20.29,7.984 C20.2299997,7.91999968 20.0240018,7.888 19.672,7.888 C19.4879991,7.888 19.396,7.84400044 19.396,7.756 C19.396,7.69199968 19.4639993,7.66 19.6,7.66 C19.592,7.66 19.6799991,7.66399996 19.864,7.672 C20.0480009,7.68000004 20.2279991,7.684 20.404,7.684 L21.688,7.684 C23.1280072,7.684 24.147997,7.783999 24.748,7.984 C25.4760036,8.2240012 26.0639978,8.69799646 26.512,9.406 C26.9600022,10.1140035 27.184,10.9279954 27.184,11.848 Z M25.84,11.8 C25.84,10.4719934 25.5800026,9.4980031 25.06,8.878 C24.5399974,8.2579969 23.7280055,7.948 22.624,7.948 C22.0879973,7.948 21.7640006,8.00399944 21.652,8.116 C21.6039998,8.17200028 21.58,8.36399836 21.58,8.692 L21.58,15.076 C21.58,15.3000011 21.5859999,15.4359998 21.598,15.484 C21.6100001,15.5320002 21.6439997,15.5719998 21.7,15.604 C21.892001,15.7000005 22.2959969,15.748 22.912,15.748 C23.7760043,15.748 24.4719974,15.444003 25,14.836 C25.5600028,14.1959968 25.84,13.1840069 25.84,11.8 Z M34.816,15.64 C34.816,15.9760017 34.5360028,16.144 33.976,16.144 C33.3519969,16.144 32.8640018,15.8840026 32.512,15.364 C32.3599992,15.1399989 32.2620002,14.924001 32.218,14.716 C32.1739998,14.507999 32.1080004,13.9800042 32.02,13.132 C31.9719998,12.6199974 31.8080014,12.2580011 31.528,12.046 C31.2479986,11.8339989 30.7920032,11.7200001 30.16,11.704 L30.16,15.484 C30.16,15.6440008 30.2879987,15.7439998 30.544,15.784 C30.6160004,15.792 30.7999985,15.8 31.096,15.808 C31.2000005,15.808 31.252,15.8399997 31.252,15.904 C31.252,15.9760004 31.1840007,16.012 31.048,16.012 L30.904,16.012 C30.8319996,16.004 30.4840031,16 29.86,16 C29.7399994,16 29.5360014,16.004 29.248,16.012 L28.228,16.012 C28.0519991,16.012 27.964,15.9760004 27.964,15.904 C27.964,15.8479997 28.0799988,15.816 28.312,15.808 C28.6880019,15.8 28.8919998,15.7520004 28.924,15.664 C28.9560002,15.6239998 28.972,15.4680014 28.972,15.196 L28.972,8.572 C28.972,8.2519984 28.9380003,8.06000032 28.87,7.996 C28.8019997,7.93199968 28.5960017,7.89600004 28.252,7.888 C28.051999,7.888 27.952,7.85200036 27.952,7.78 C27.952,7.6999996 28.0159994,7.66 28.144,7.66 C28.1680001,7.66 28.2039998,7.66399996 28.252,7.672 L29.848,7.708 C30.0080008,7.708 30.2319986,7.70400004 30.52,7.696 C30.8400016,7.67999992 31.0639994,7.672 31.192,7.672 C31.9360037,7.672 32.5259978,7.83799834 32.962,8.17 C33.3980022,8.50200166 33.616,8.95199716 33.616,9.52 C33.616,10.0800028 33.3920022,10.5419982 32.944,10.906 C32.4959978,11.2700018 31.8880038,11.4839997 31.12,11.548 C31.0479996,11.556 31.008,11.5679999 31,11.584 C31,11.6160002 31.0399996,11.632 31.12,11.632 C31.9600042,11.7760007 32.5379984,12.0699978 32.854,12.514 C33.1700016,12.9580022 33.3799995,13.7599942 33.484,14.92 C33.5480003,15.5760033 33.7719981,15.904 34.156,15.904 C34.2760006,15.904 34.336,15.8800002 34.336,15.832 C34.336,15.824 34.332,15.816 34.324,15.808 C34.2839998,15.7199996 34.264,15.6480003 34.264,15.592 C34.264,15.4239992 34.3519991,15.34 34.528,15.34 C34.720001,15.34 34.816,15.439999 34.816,15.64 Z M32.332,9.628 C32.332,8.48399428 31.836005,7.912 30.844,7.912 C30.5799987,7.912 30.4000005,7.94799964 30.304,8.02 C30.2079995,8.09200036 30.16,8.21999908 30.16,8.404 L30.16,11.452 C30.9280038,11.46 31.4819983,11.3200014 31.822,11.032 C32.1620017,10.7439986 32.332,10.2760032 32.332,9.628 Z M41.488,14.056 C41.488,14.0880002 41.4800001,14.2839982 41.464,14.644 C41.4479999,15.0040018 41.44,15.3479984 41.44,15.676 L41.44,16.072 C40.6559961,16.0319998 39.1040116,16.012 36.784,16.012 C36.5039986,16.012 36.2280014,16.016 35.956,16.024 L35.284,16.024 C35.1319992,16.024 35.056,15.9880004 35.056,15.916 C35.056,15.8679998 35.0799998,15.84 35.128,15.832 C35.1520001,15.832 35.3039986,15.8200001 35.584,15.796 C35.792001,15.7799999 35.9179998,15.7360004 35.962,15.664 C36.0060002,15.5919996 36.028,15.4040015 36.028,15.1 L36.028,8.356 C36.028,8.12399884 35.9940003,7.98600022 35.926,7.942 C35.8579997,7.89799978 35.6400018,7.876 35.272,7.876 C35.1439994,7.876 35.08,7.84000036 35.08,7.768 C35.08,7.69599964 35.1679991,7.66 35.344,7.66 L37.396,7.672 C37.4680004,7.672 37.9199958,7.66800004 38.752,7.66 L40.432,7.66 C40.6720012,7.66 40.891999,7.64400016 41.092,7.612 C41.1080001,7.95600172 41.1439997,8.43199696 41.2,9.04 L41.248,9.556 C41.256,9.5960002 41.26,9.64799968 41.26,9.712 C41.26,9.7920004 41.2240004,9.832 41.152,9.832 C41.0639996,9.832 41.0000002,9.732001 40.96,9.532 C40.8079992,8.8119964 40.5600017,8.35600096 40.216,8.164 C39.9599987,8.01999928 39.2880054,7.948 38.2,7.948 L37.216,7.948 L37.216,11.464 L37.504,11.464 C38.4000045,11.464 38.945999,11.3960007 39.142,11.26 C39.338001,11.1239993 39.4719996,10.7280033 39.544,10.072 C39.5600001,9.90399916 39.6039996,9.82 39.676,9.82 C39.7640004,9.82 39.808,9.89199928 39.808,10.036 C39.808,10.1800007 39.8000001,10.3919986 39.784,10.672 C39.7679999,10.9520014 39.76,11.1639993 39.76,11.308 C39.76,12.1640043 39.7759998,12.7519984 39.808,13.072 C39.816,13.1520004 39.82,13.2199997 39.82,13.276 C39.82,13.3800005 39.7760004,13.432 39.688,13.432 C39.6319997,13.432 39.5940001,13.3980003 39.574,13.33 C39.5539999,13.2619997 39.5200002,13.0400019 39.472,12.664 C39.4079997,12.1919976 39.2120016,11.9000006 38.884,11.788 C38.7399993,11.7399998 38.364003,11.716 37.756,11.716 L37.216,11.716 L37.216,15.748 C38.9760088,15.748 40.0079985,15.7120004 40.312,15.64 C40.8400026,15.5199994 41.1399996,15.0080045 41.212,14.104 C41.2280001,13.903999 41.2799996,13.804 41.368,13.804 C41.4480004,13.804 41.488,13.8879992 41.488,14.056 Z M53.02,7.756 C53.02,7.82800036 52.8840014,7.86799996 52.612,7.876 C52.3079985,7.88400004 52.1060005,7.98399904 52.006,8.176 C51.9059995,8.36800096 51.752001,8.77599688 51.544,9.4 C51.1839982,10.4960055 50.8640014,11.4279962 50.584,12.196 C50.1039976,13.5080066 49.668002,14.7759939 49.276,16 C49.2439998,16.1040005 49.2040002,16.156 49.156,16.156 C49.1159998,16.156 49.0780002,16.1160004 49.042,16.036 C49.0059998,15.9559996 48.9000009,15.6760024 48.724,15.196 C48.4999989,14.5719969 48.2560013,13.9440032 47.992,13.312 C47.783999,12.8159975 47.580001,12.3040026 47.38,11.776 C46.8199972,13.1280068 46.2640028,14.5399926 45.712,16.012 C45.6799998,16.1080005 45.6400002,16.156 45.592,16.156 C45.5519998,16.156 45.5040003,16.0880007 45.448,15.952 C45.1999988,15.359997 44.280008,12.9080216 42.688,8.596 C42.5759994,8.29199848 42.4920003,8.10200038 42.436,8.026 C42.3799997,7.94999962 42.2400011,7.90800004 42.016,7.9 C41.6319981,7.88399992 41.44,7.82800048 41.44,7.732 C41.44,7.65999964 41.5039994,7.624 41.632,7.624 C41.6880003,7.624 41.7359998,7.62799996 41.776,7.636 C42.2000021,7.66000012 42.6559976,7.672 43.144,7.672 C43.2400005,7.672 43.4059988,7.66600006 43.642,7.654 C43.8780012,7.64199994 44.1839981,7.636 44.56,7.636 L44.692,7.636 C44.8280007,7.636 44.896,7.67199964 44.896,7.744 C44.896,7.83200044 44.7720012,7.87999996 44.524,7.888 C44.0279975,7.90400008 43.78,7.96799944 43.78,8.08 C43.78,8.30400112 44.5159926,10.3879803 45.988,14.332 C46.5240027,12.9799932 46.9239987,11.9840032 47.188,11.344 L46,8.272 C45.9359997,8.10399916 45.8620004,7.99600024 45.778,7.948 C45.6939996,7.89999976 45.5400011,7.87200004 45.316,7.864 C45.0919989,7.85599996 44.98,7.82000032 44.98,7.756 C44.98,7.66799956 45.0639992,7.624 45.232,7.624 C45.3600006,7.624 45.5159991,7.63199992 45.7,7.648 C45.8840009,7.66400008 46.2039977,7.672 46.66,7.672 L47.572,7.672 L48.892,7.696 C49.1880015,7.696 49.5439979,7.68000016 49.96,7.648 C50.0080002,7.63999996 50.0639997,7.636 50.128,7.636 C50.320001,7.636 50.416,7.6759996 50.416,7.756 C50.416,7.82800036 50.3480007,7.864 50.212,7.864 L50.008,7.864 C49.6479982,7.864 49.3760009,7.91199952 49.192,8.008 C49.1119996,8.0480002 48.9640011,8.33599732 48.748,8.872 C48.6519995,9.09600112 48.4920011,9.47599732 48.268,10.012 L48.052,10.552 C48.1080003,10.7120008 48.2839985,11.1559964 48.58,11.884 C48.9640019,12.8120046 49.2799988,13.6079967 49.528,14.272 C49.9760022,12.9759935 50.503997,11.4440088 51.112,9.676 C51.4320016,8.73999532 51.592,8.22000052 51.592,8.116 C51.592,7.96399924 51.4520014,7.888 51.172,7.888 C50.779998,7.888 50.584,7.84400044 50.584,7.756 C50.584,7.6759996 50.6639992,7.636 50.824,7.636 C50.9600007,7.636 51.0679996,7.63999996 51.148,7.648 C51.3240009,7.66400008 51.4839993,7.672 51.628,7.672 L52.588,7.66 C52.8280012,7.66 52.9599999,7.6699999 52.984,7.69 C53.0080001,7.7100001 53.02,7.73199988 53.02,7.756 Z M48.688,8.116 C48.688,7.97199928 48.4400025,7.9 47.944,7.9 L47.8,7.9 L47.596,7.912 C47.3079986,7.92800008 47.164,7.97999956 47.164,8.068 C47.164,8.08400008 47.3999976,8.77599316 47.872,10.144 C48.0560009,9.743998 48.2719988,9.21600328 48.52,8.56 C48.5520002,8.47199956 48.5999997,8.35600072 48.664,8.212 C48.6800001,8.14799968 48.688,8.116 48.688,8.116 Z" id="Andrew" fill="#FFFFFF"></path>
        <path d="M16.223,22.911 C16.223,22.9790003 16.186167,23.0186666 16.1125,23.03 C16.038833,23.0413334 15.7753356,23.0583332 15.322,23.081 C14.9706649,23.0923334 14.7440005,23.1319997 14.642,23.2 C14.5399995,23.2680003 14.4663336,23.4436652 14.421,23.727 C14.160332,25.1436738 13.667337,26.418661 12.942,27.552 C13.1686678,27.9146685 13.3329995,28.197999 13.435,28.402 C13.7070014,28.9460027 13.9704987,29.2859993 14.2255,29.422 C14.4805013,29.5580007 14.9933295,29.6429998 15.764,29.677 C16.0020012,29.6883334 16.121,29.7506661 16.121,29.864 C16.121,29.9546671 16.0416675,30 15.883,30 C15.5996653,30 15.0783371,29.9830002 14.319,29.949 C14.058332,29.9376666 13.8826671,29.932 13.792,29.932 C13.4179981,29.932 13.0100022,29.9546664 12.568,30 C12.5226664,29.8753327 12.3300017,29.5126697 11.99,28.912 L11.905,28.776 C10.9983288,29.7393381 9.81400731,30.221 8.352,30.221 C7.22999439,30.221 6.31767018,29.9206697 5.615,29.32 C4.91232982,28.7193303 4.561,27.9373382 4.561,26.974 C4.561,25.3646586 5.55832336,24.095338 7.553,23.166 C7.53033322,23.1319998 7.45666729,23.0526673 7.332,22.928 C6.75399711,22.3273303 6.39416738,21.9051679 6.2525,21.6615 C6.11083263,21.4178321 6.04,21.0976686 6.04,20.701 C6.04,19.8963293 6.30349737,19.2446692 6.8305,18.746 C7.35750264,18.2473308 8.04032914,17.998 8.879,17.998 C9.68367069,17.998 10.3324975,18.2048313 10.8255,18.6185 C11.3185025,19.0321687 11.565,19.57333 11.565,20.242 C11.565,21.318672 10.7773412,22.1743302 9.202,22.809 C9.27000034,22.8883337 9.55333084,23.2169971 10.052,23.795 C11.0493383,24.9396724 11.9276629,26.0616612 12.687,27.161 C13.4916707,25.8689935 13.894,24.6676722 13.894,23.557 C13.894,23.3076654 13.8430005,23.1631669 13.741,23.1235 C13.6389995,23.0838331 13.2763365,23.064 12.653,23.064 C12.3129983,23.064 12.143,23.0073339 12.143,22.894 C12.143,22.8033329 12.2393324,22.758 12.432,22.758 L15.186,22.758 C15.7073359,22.758 15.9906664,22.7636666 16.036,22.775 C16.1606673,22.8090002 16.223,22.8543331 16.223,22.911 Z M10.256,20.412 C10.256,19.7773302 10.1171681,19.2616686 9.8395,18.865 C9.56183195,18.4683313 9.20200221,18.27 8.76,18.27 C8.3066644,18.27 7.93266814,18.4201652 7.638,18.7205 C7.34333186,19.0208348 7.196,19.3976644 7.196,19.851 C7.196,20.6896709 7.80799388,21.6019951 9.032,22.588 C9.84800408,22.1459978 10.256,21.4206717 10.256,20.412 Z M11.701,28.436 C11.0096632,27.2346607 9.68934308,25.5460109 7.74,23.37 C7.18466389,23.7893354 6.7908345,24.2199978 6.5585,24.662 C6.32616551,25.1040022 6.21,25.6366635 6.21,26.26 C6.21,27.2233381 6.47916398,28.0279968 7.0175,28.674 C7.55583603,29.3200032 8.22732931,29.643 9.032,29.643 C10.0406717,29.643 10.9303295,29.2406707 11.701,28.436 Z" id="&amp;" fill="#FFFFFF"></path>
        <path d="M27.704,21.78 C27.704,21.8600004 27.604001,21.896 27.404,21.888 L27.14,21.876 L26.924,21.876 C26.7959994,21.876 26.7200001,21.8979998 26.696,21.942 C26.6719999,21.9860002 26.66,22.1199989 26.66,22.344 L26.66,29.256 C26.66,29.6800021 26.656,29.9279996 26.648,30 C26.64,30.0720004 26.6160002,30.108 26.576,30.108 C26.5279998,30.108 26.4720003,30.0640004 26.408,29.976 L24.872,27.732 C23.9839956,26.4279935 22.9040064,24.8000098 21.632,22.848 L21.644,29.544 C21.652,29.6480005 21.7119994,29.7139999 21.824,29.742 C21.9360006,29.7700001 22.2039979,29.788 22.628,29.796 C22.7320005,29.796 22.784,29.8279997 22.784,29.892 C22.784,29.9720004 22.680001,30.012 22.472,30.012 C22.3999996,30.012 22.1720019,30.0000001 21.788,29.976 C21.6599994,29.968 21.5360006,29.964 21.416,29.964 C21.424,29.964 21.3540007,29.9719999 21.206,29.988 C21.0579993,30.0040001 20.8320015,30.012 20.528,30.012 L20.408,30.012 C20.2239991,30.012 20.132,29.9760004 20.132,29.904 C20.132,29.8319996 20.2119992,29.796 20.372,29.796 C20.8440024,29.788 21.1179996,29.7580003 21.194,29.706 C21.2700004,29.6539997 21.308,29.4840014 21.308,29.196 L21.308,23.28 C21.308,22.6159967 21.1720014,22.2000008 20.9,22.032 C20.7719994,21.9519996 20.5440016,21.912 20.216,21.912 C20.007999,21.912 19.904,21.8720004 19.904,21.792 C19.904,21.7199996 19.9639994,21.684 20.084,21.684 C20.2440008,21.684 20.4479988,21.688 20.696,21.696 C20.9440012,21.704 21.0759999,21.708 21.092,21.708 C21.1160001,21.708 21.227999,21.704 21.428,21.696 C21.6920013,21.696 21.9479988,21.692 22.196,21.684 L26.336,27.84 L26.336,22.5 C26.336,22.2519988 26.332,22.1020003 26.324,22.05 C26.316,21.9979997 26.2840003,21.9580001 26.228,21.93 C26.1719997,21.9019999 25.9800016,21.888 25.652,21.888 C25.3639986,21.888 25.22,21.8520004 25.22,21.78 C25.22,21.6999996 25.315999,21.66 25.508,21.66 L26.264,21.66 C26.3920006,21.668 26.4679999,21.672 26.492,21.672 C26.5,21.672 26.5719993,21.668 26.708,21.66 L27.44,21.66 C27.6160009,21.66 27.704,21.6999996 27.704,21.78 Z M31.328,29.904 C31.328,29.9680003 31.2800005,30 31.184,30 L31.064,30 C31.0159998,29.9759999 30.4720052,29.964 29.432,29.964 C29.231999,29.964 29.032001,29.9719999 28.832,29.988 C28.7279995,29.996 28.5680011,30 28.352,30 C28.2479995,30 28.196,29.9640004 28.196,29.892 C28.196,29.8279997 28.299999,29.792 28.508,29.784 C28.8280016,29.776 29.0159997,29.7380003 29.072,29.67 C29.1280003,29.6019997 29.156,29.372002 29.156,28.98 L29.156,22.668 C29.156,22.275998 29.1360002,22.0560002 29.096,22.008 C29.0479998,21.9279996 28.828002,21.8800001 28.436,21.864 C28.2839992,21.856 28.208,21.8240003 28.208,21.768 C28.208,21.6959996 28.2559995,21.66 28.352,21.66 L29.972,21.684 C30.0920006,21.684 30.3239983,21.68 30.668,21.672 L31.124,21.66 C31.2520006,21.66 31.316,21.6959996 31.316,21.768 C31.316,21.8320003 31.1400018,21.8719999 30.788,21.888 C30.587999,21.896 30.4660002,21.9319997 30.422,21.996 C30.3779998,22.0600003 30.356,22.2279986 30.356,22.5 L30.356,28.908 C30.356,29.3640023 30.3759998,29.6119998 30.416,29.652 C30.5040004,29.7400004 30.7639978,29.7919999 31.196,29.808 C31.2840004,29.808 31.328,29.8399997 31.328,29.904 Z M38.936,27.324 C38.936,27.3079999 38.9280001,27.4159988 38.912,27.648 C38.8799998,28.1120023 38.864,28.5599978 38.864,28.992 C38.864,29.0400002 38.8719999,29.1379993 38.888,29.286 C38.9040001,29.4340007 38.912,29.611999 38.912,29.82 L38.912,29.928 C38.912,30.0320005 38.8800003,30.084 38.816,30.084 C38.7519997,30.084 38.6960002,30.0240006 38.648,29.904 C38.5359994,29.6399987 38.4240006,29.4680004 38.312,29.388 C37.7359971,29.8920025 37.044004,30.144 36.236,30.144 C35.0599941,30.144 34.0860039,29.7340041 33.314,28.914 C32.5419961,28.0939959 32.156,27.0600062 32.156,25.812 C32.156,24.5559937 32.5099965,23.530004 33.218,22.734 C33.9260035,21.937996 34.8399944,21.54 35.96,21.54 C36.368002,21.54 36.6939988,21.5739997 36.938,21.642 C37.1820012,21.7100003 37.4839982,21.847999 37.844,22.056 C38.0200009,22.1600005 38.1519996,22.212 38.24,22.212 C38.3120004,22.212 38.3799997,22.1480006 38.444,22.02 C38.5480005,21.7959989 38.6319997,21.684 38.696,21.684 C38.7600003,21.684 38.792,21.7159997 38.792,21.78 C38.792,21.8120002 38.7840001,21.8639996 38.768,21.936 C38.6799996,22.3200019 38.636,23.0399947 38.636,24.096 C38.636,24.2480008 38.6240001,24.3359999 38.6,24.36 C38.5759999,24.3840001 38.5440002,24.396 38.504,24.396 C38.4239996,24.396 38.3720001,24.3200008 38.348,24.168 C38.2439995,23.5279968 38.096001,23.0520016 37.904,22.74 C37.511998,22.0999968 36.8960042,21.78 36.056,21.78 C35.4079968,21.78 34.8960019,21.9959978 34.52,22.428 C33.8399966,23.2040039 33.5,24.3399925 33.5,25.836 C33.5,27.1720067 33.7799972,28.2079963 34.34,28.944 C34.8280024,29.5840032 35.475996,29.904 36.284,29.904 C36.7000021,29.904 37.0799983,29.802001 37.424,29.598 C37.7680017,29.393999 38.0319991,29.1160018 38.216,28.764 C38.424001,28.355998 38.5719996,27.9120024 38.66,27.432 C38.6920002,27.239999 38.7439996,27.144 38.816,27.144 C38.8960004,27.144 38.936,27.2039994 38.936,27.324 Z M47.612,25.884 C47.612,27.076006 47.2540036,28.0839959 46.538,28.908 C45.8219964,29.7320041 44.9440052,30.144 43.904,30.144 C42.7999945,30.144 41.8720038,29.7260042 41.12,28.89 C40.3679962,28.0539958 39.992,27.0240061 39.992,25.8 C39.992,24.5519938 40.3539964,23.530004 41.078,22.734 C41.8020036,21.937996 42.7279944,21.54 43.856,21.54 C44.9200053,21.54 45.8119964,21.9559958 46.532,22.788 C47.2520036,23.6200042 47.612,24.6519938 47.612,25.884 Z M46.268,25.944 C46.268,24.4799927 45.968003,23.3400041 45.368,22.524 C44.9919981,22.0119974 44.4680034,21.756 43.796,21.756 C43.1559968,21.756 42.6600018,21.951998 42.308,22.344 C41.6599968,23.0640036 41.336,24.2359919 41.336,25.86 C41.336,27.1480064 41.5619977,28.1479964 42.014,28.86 C42.4660023,29.5720036 43.0999959,29.928 43.916,29.928 C44.6760038,29.928 45.2479981,29.5920034 45.632,28.92 C46.0560021,28.1759963 46.268,27.1840062 46.268,25.944 Z M54.776,29.052 C54.776,29.260001 54.7640001,29.6039976 54.74,30.084 L54.608,30.084 C54.5599998,30.084 54.4440009,30.0760001 54.26,30.06 C54.0759991,30.0439999 53.8680012,30.036 53.636,30.036 L48.644,30 C48.5079993,30 48.44,29.9640004 48.44,29.892 C48.44,29.8359997 48.5479989,29.8000001 48.764,29.784 C49.0680015,29.7679999 49.2499997,29.7340003 49.31,29.682 C49.3700003,29.6299997 49.4,29.4800012 49.4,29.232 L49.4,22.488 C49.4,22.1919985 49.3700003,22.0200002 49.31,21.972 C49.2499997,21.9239998 49.0360018,21.9 48.668,21.9 C48.5159992,21.9 48.44,21.8560004 48.44,21.768 C48.44,21.6959996 48.4879995,21.66 48.584,21.66 L48.692,21.66 C48.9560013,21.6840001 49.4799961,21.696 50.264,21.696 C50.3360004,21.696 50.475999,21.6900001 50.684,21.678 C50.892001,21.6659999 51.0639993,21.66 51.2,21.66 L51.332,21.66 C51.4760007,21.66 51.548,21.6999996 51.548,21.78 C51.548,21.8280002 51.5260002,21.8579999 51.482,21.87 C51.4379998,21.8820001 51.3000012,21.892 51.068,21.9 C50.8359988,21.908 50.6980002,21.9459997 50.654,22.014 C50.6099998,22.0820003 50.588,22.2919982 50.588,22.644 L50.588,29.724 C50.8040011,29.732 51.1039981,29.736 51.488,29.736 C52.4240047,29.736 53.0839981,29.6880005 53.468,29.592 C53.8520019,29.4959995 54.1119993,29.3160013 54.248,29.052 C54.3840007,28.7879987 54.4639999,28.4320022 54.488,27.984 C54.496,27.8799995 54.5439996,27.828 54.632,27.828 C54.7360005,27.828 54.784,27.8879994 54.776,28.008 L54.764,28.308 L54.764,28.416 C54.772,28.4720003 54.776,28.5279997 54.776,28.584 L54.776,29.052 Z M61.628,28.056 C61.628,28.0880002 61.6200001,28.2839982 61.604,28.644 C61.5879999,29.0040018 61.58,29.3479984 61.58,29.676 L61.58,30.072 C60.7959961,30.0319998 59.2440116,30.012 56.924,30.012 C56.6439986,30.012 56.3680014,30.016 56.096,30.024 L55.424,30.024 C55.2719992,30.024 55.196,29.9880004 55.196,29.916 C55.196,29.8679998 55.2199998,29.84 55.268,29.832 C55.2920001,29.832 55.4439986,29.8200001 55.724,29.796 C55.932001,29.7799999 56.0579998,29.7360004 56.102,29.664 C56.1460002,29.5919996 56.168,29.4040015 56.168,29.1 L56.168,22.356 C56.168,22.1239988 56.1340003,21.9860002 56.066,21.942 C55.9979997,21.8979998 55.7800018,21.876 55.412,21.876 C55.2839994,21.876 55.22,21.8400004 55.22,21.768 C55.22,21.6959996 55.3079991,21.66 55.484,21.66 L57.536,21.672 C57.6080004,21.672 58.0599958,21.668 58.892,21.66 L60.572,21.66 C60.8120012,21.66 61.031999,21.6440002 61.232,21.612 C61.2480001,21.9560017 61.2839997,22.431997 61.34,23.04 L61.388,23.556 C61.396,23.5960002 61.4,23.6479997 61.4,23.712 C61.4,23.7920004 61.3640004,23.832 61.292,23.832 C61.2039996,23.832 61.1400002,23.732001 61.1,23.532 C60.9479992,22.8119964 60.7000017,22.356001 60.356,22.164 C60.0999987,22.0199993 59.4280054,21.948 58.34,21.948 L57.356,21.948 L57.356,25.464 L57.644,25.464 C58.5400045,25.464 59.085999,25.3960007 59.282,25.26 C59.478001,25.1239993 59.6119996,24.7280033 59.684,24.072 C59.7000001,23.9039992 59.7439996,23.82 59.816,23.82 C59.9040004,23.82 59.948,23.8919993 59.948,24.036 C59.948,24.1800007 59.9400001,24.3919986 59.924,24.672 C59.9079999,24.9520014 59.9,25.1639993 59.9,25.308 C59.9,26.1640043 59.9159998,26.7519984 59.948,27.072 C59.956,27.1520004 59.96,27.2199997 59.96,27.276 C59.96,27.3800005 59.9160004,27.432 59.828,27.432 C59.7719997,27.432 59.7340001,27.3980003 59.714,27.33 C59.6939999,27.2619997 59.6600002,27.0400019 59.612,26.664 C59.5479997,26.1919976 59.3520016,25.9000006 59.024,25.788 C58.8799993,25.7399998 58.504003,25.716 57.896,25.716 L57.356,25.716 L57.356,29.748 C59.1160088,29.748 60.1479985,29.7120004 60.452,29.64 C60.9800026,29.5199994 61.2799996,29.0080045 61.352,28.104 C61.3680001,27.903999 61.4199996,27.804 61.508,27.804 C61.5880004,27.804 61.628,27.8879992 61.628,28.056 Z" id="Nicole" fill="#FFFFFF"></path>
    </g>
</svg>