<?xml version="1.0" encoding="UTF-8"?>
<svg width="39px" height="64px" viewBox="0 0 39 64" version="1.1" xmlns="http://www.w3.org/2000/svg" xmlns:xlink="http://www.w3.org/1999/xlink">
    <!-- Generator: Sketch 52.3 (67297) - http://www.bohemiancoding.com/sketch -->
    <title>hotel-light</title>
    <desc>Created with Sketch.</desc>
    <g id="hotel-light" stroke="none" stroke-width="1" fill="none" fill-rule="evenodd">
        <ellipse id="Oval" fill="#000000" opacity="0.6" cx="19.5" cy="59.6" rx="13.9" ry="4.4"></ellipse>
        <path d="M33,5.5 C36.6,9.2 38.4,13.7 38.4,19.1 C38.4,23.5 36.8,28.9 33.6,35.6 C30.4,42.3 27.3,47.8 24.1,52.3 L19.3,59 C18,57 16.2,54.6 14.1,51.5 C12,48.6 9.2,43.5 5.7,36.3 C2.2,29.1 0.5,23.4 0.5,19 C0.5,13.6 2.3,9.1 6,5.5 C9.8,1.9 14.2,0 19.5,0 C24.8,0 29.2,1.7 33,5.5 Z M30.877,10.672 L30.877,10.052 C29.8643283,10.1140003 28.2936773,10.145 26.165,10.145 C24.0776562,10.145 22.4553391,10.1140003 21.298,10.052 L21.298,10.672 C21.9800034,10.7133335 22.4811651,10.7959994 22.8015,10.92 C23.1218349,11.0440006 23.3388328,11.2816649 23.4525,11.633 C23.5661672,11.9843351 23.623,12.5526627 23.623,13.338 L23.623,20.654 L15.408,20.654 L15.408,13.338 C15.408,12.5526627 15.4648328,11.9843351 15.5785,11.633 C15.6921672,11.2816649 15.9039985,11.0440006 16.214,10.92 C16.5240016,10.7959994 17.0303298,10.7133335 17.733,10.672 L17.733,10.052 C16.6169944,10.1140003 15.0566767,10.145 13.052,10.145 C10.8406556,10.145 9.20800527,10.1140003 8.154,10.052 L8.154,10.672 C8.83600341,10.7133335 9.33716507,10.7959994 9.6575,10.92 C9.97783494,11.0440006 10.1948328,11.2816649 10.3085,11.633 C10.4221672,11.9843351 10.479,12.5526627 10.479,13.338 L10.479,28.714 C10.479,29.4993373 10.4221672,30.0676649 10.3085,30.419 C10.1948328,30.7703351 9.97783494,31.0079994 9.6575,31.132 C9.33716507,31.2560006 8.83600341,31.3386665 8.154,31.38 L8.154,32 C9.20800527,31.9379997 10.8406556,31.907 13.052,31.907 C15.0566767,31.907 16.6169944,31.9379997 17.733,32 L17.733,31.38 C17.0303298,31.3386665 16.5240016,31.2560006 16.214,31.132 C15.9039985,31.0079994 15.6921672,30.7703351 15.5785,30.419 C15.4648328,30.0676649 15.408,29.4993373 15.408,28.714 L15.408,21.274 L23.623,21.274 L23.623,28.714 C23.623,29.4993373 23.5661672,30.0676649 23.4525,30.419 C23.3388328,30.7703351 23.1218349,31.0079994 22.8015,31.132 C22.4811651,31.2560006 21.9800034,31.3386665 21.298,31.38 L21.298,32 C22.4553391,31.9379997 24.0776562,31.907 26.165,31.907 C28.2936773,31.907 29.8643283,31.9379997 30.877,32 L30.877,31.38 C30.1743298,31.3386665 29.6680016,31.2560006 29.358,31.132 C29.0479985,31.0079994 28.8361672,30.7703351 28.7225,30.419 C28.6088328,30.0676649 28.552,29.4993373 28.552,28.714 L28.552,13.338 C28.552,12.5526627 28.6088328,11.9843351 28.7225,11.633 C28.8361672,11.2816649 29.0479985,11.0440006 29.358,10.92 C29.6680016,10.7959994 30.1743298,10.7133335 30.877,10.672 Z" id="Combined-Shape" fill="#FFFFFF" fill-rule="nonzero"></path>
    </g>
</svg>