<?xml version="1.0" encoding="UTF-8"?>
<svg width="39px" height="64px" viewBox="0 0 39 64" version="1.1" xmlns="http://www.w3.org/2000/svg" xmlns:xlink="http://www.w3.org/1999/xlink">
    <!-- Generator: Sketch 52.3 (67297) - http://www.bohemiancoding.com/sketch -->
    <title>wedding-light</title>
    <desc>Created with Sketch.</desc>
    <g id="wedding-light" stroke="none" stroke-width="1" fill="none" fill-rule="evenodd">
        <ellipse id="Oval" fill="#000000" opacity="0.6" cx="19.5" cy="59.6" rx="13.9" ry="4.4"></ellipse>
        <path d="M33,5.5 C36.6,9.2 38.4,13.7 38.4,19.1 C38.4,23.5 36.8,28.9 33.6,35.6 C30.4,42.3 27.3,47.8 24.1,52.3 L19.3,59 C18,57 16.2,54.6 14.1,51.5 C12,48.6 9.2,43.5 5.7,36.3 C2.2,29.1 0.5,23.4 0.5,19 C0.5,13.6 2.3,9.1 6,5.5 C9.8,1.9 14.2,0 19.5,0 C24.8,0 29.2,1.7 33,5.5 Z M31.5372799,13.1365493 C30.4935316,13.1365493 29.3379705,13.1083665 28.0705619,13.052 L28.0705619,13.615662 C28.8720114,13.6532396 29.4730896,13.8552165 29.8738144,14.2215986 C30.2745392,14.5879807 30.4748986,15.1751227 30.4748986,15.9830423 C30.4748986,16.7533841 30.2605606,17.8431197 29.8318783,19.2522817 L27.1759249,27.7635775 L23.3457606,15.9830423 C23.159377,15.4381663 23.0661866,14.9966355 23.0661866,14.6584366 C23.0661866,14.2638713 23.2152913,13.9961345 23.5135051,13.8552183 C23.8117189,13.7143021 24.296309,13.6344508 24.9672901,13.615662 L24.9672901,13.052 C24.1099254,13.1083665 22.7679834,13.1365493 20.9414239,13.1365493 C19.3198864,13.1365493 17.9872635,13.1083665 16.9435152,13.052 L16.9435152,13.615662 C17.2790057,13.6532396 17.5725555,13.7800623 17.8241734,13.9961338 C18.0757913,14.2122053 18.2947888,14.5926733 18.4811724,15.1375493 L19.907,19.5059296 L17.0833022,27.904493 L13.0015213,15.9830423 C12.833776,15.4381663 12.7499047,15.015424 12.7499047,14.7148028 C12.7499047,14.0759827 13.0760711,13.7096061 13.7284138,13.615662 L13.7284138,13.052 C13.0015177,13.1083665 11.8552756,13.1365493 10.2896531,13.1365493 C8.6308389,13.1365493 7.24230174,13.1083665 6.124,13.052 L6.124,13.615662 C6.44085216,13.6344508 6.75769957,13.7847592 7.07455172,14.0665915 C7.39140388,14.3484239 7.66165608,14.799349 7.88531643,15.4193803 L14.1477748,33.062 C14.3527968,33.0432112 14.6789633,33.0338169 15.126284,33.0338169 C15.5736047,33.0338169 15.8997711,33.0432112 16.1047931,33.062 L20.2424888,20.492338 L24.3522272,33.062 C24.5572492,33.0432112 24.8834156,33.0338169 25.3307363,33.0338169 C25.778057,33.0338169 26.1042235,33.0432112 26.3092454,33.062 L31.2297485,16.9694507 C31.5279623,15.9924317 31.8960644,15.2361928 32.3340659,14.7007113 C32.7720674,14.1652297 33.2240409,13.8035502 33.69,13.615662 L33.69,13.052 C33.1308491,13.1083665 32.4132829,13.1365493 31.5372799,13.1365493 Z" id="Combined-Shape" fill="#FFFFFF" fill-rule="nonzero"></path>
    </g>
</svg>